<?xml version="1.0" standalone="no"?>
<!DOCTYPE svg PUBLIC "-//W3C//DTD SVG 20010904//EN"
 "http://www.w3.org/TR/2001/REC-SVG-20010904/DTD/svg10.dtd">
<svg version="1.0" xmlns="http://www.w3.org/2000/svg"
 width="1920.000000pt" height="1280.000000pt" viewBox="0 0 1920.000000 1280.000000"
 preserveAspectRatio="xMidYMid meet">

<g transform="translate(0.000000,1280.000000) scale(0.100000,-0.100000)"
fill="#000000" stroke="none">
<path d="M0 6400 l0 -6400 1645 0 1645 0 31 55 c32 57 50 76 26 28 -8 -16 -17
-40 -21 -56 l-6 -27 427 2 427 3 8 35 c25 104 45 155 80 201 23 29 37 58 34
66 -6 14 22 73 34 73 15 0 51 44 46 56 -3 8 1 17 10 21 12 5 13 7 3 14 -11 6
-10 9 4 15 9 3 17 12 17 19 0 6 9 22 19 34 11 13 17 30 14 42 -3 12 -2 24 4
28 5 3 20 22 33 41 13 19 32 41 42 48 9 7 25 28 34 47 9 19 23 35 30 35 10 0
13 7 8 24 -4 18 1 28 24 44 23 17 28 27 24 51 -3 20 0 31 7 31 7 0 10 4 7 9
-4 5 9 25 28 44 26 27 36 32 40 21 5 -13 9 -12 31 2 23 15 25 15 19 0 -7 -17
11 -22 21 -6 9 15 25 12 25 -4 0 -12 7 -12 36 -4 44 12 50 7 30 -25 -10 -14
-14 -32 -10 -43 7 -19 6 -19 -8 0 -13 16 -17 17 -36 5 -12 -8 -22 -16 -22 -19
0 -3 -23 -3 -51 -1 -36 2 -49 0 -45 -8 4 -6 3 -11 -2 -11 -21 0 1 -39 24 -44
14 -4 27 -13 31 -21 7 -21 -35 -52 -66 -49 -25 3 -41 -10 -41 -33 0 -7 9 -13
20 -13 23 0 26 -10 8 -28 -9 -9 -8 -12 6 -12 9 0 15 4 11 9 -3 5 -1 12 5 16
15 9 12 -18 -4 -41 -10 -13 -11 -23 -4 -31 7 -9 7 -13 -1 -13 -17 0 -38 -23
-43 -46 -3 -15 -11 -18 -37 -16 -21 2 -40 -3 -52 -14 -14 -12 -19 -13 -19 -4
0 7 -2 11 -5 8 -12 -11 7 -37 23 -31 11 5 14 2 9 -10 -3 -9 -2 -19 4 -22 5 -4
7 -11 3 -16 -3 -5 -10 -7 -15 -3 -6 3 -10 0 -8 -7 4 -30 -3 -34 -56 -33 -30 1
-55 -2 -55 -7 0 -5 -8 -9 -17 -9 -16 0 -15 -3 3 -18 12 -9 24 -24 27 -33 4
-12 14 -15 34 -12 26 4 27 3 10 -10 -10 -8 -15 -21 -11 -30 3 -10 -5 -27 -20
-44 -14 -15 -26 -24 -26 -18 0 5 -7 0 -15 -11 -14 -19 -14 -19 -15 1 -1 11 -4
14 -7 7 -2 -6 -9 -10 -14 -6 -5 3 -9 0 -9 -5 0 -6 4 -11 10 -11 5 0 9 -28 8
-65 -1 -36 -6 -65 -10 -65 -4 0 -8 7 -8 15 0 8 -4 15 -10 15 -13 0 -13 -17 0
-25 5 -3 8 -19 7 -34 -2 -23 -5 -27 -16 -18 -10 9 -16 7 -27 -8 -11 -14 -14
-15 -14 -4 0 8 3 19 8 25 4 5 -1 1 -10 -9 -10 -11 -15 -23 -12 -28 3 -5 -7 -9
-23 -10 -25 0 -26 -1 -8 -9 11 -5 463 -9 1005 -9 l985 -1 -5 64 c-3 36 -9 68
-13 72 -4 4 -7 2 -7 -6 0 -10 -3 -10 -16 1 -14 12 -16 30 -11 129 4 63 9 129
12 145 8 47 13 114 25 345 6 118 15 249 21 290 5 41 14 107 18 145 5 39 14 88
20 110 7 22 13 47 15 54 1 8 8 17 14 19 7 2 10 7 7 12 -3 4 2 13 10 20 13 11
18 10 29 -6 8 -10 12 -22 10 -26 -3 -5 0 -8 5 -8 6 0 11 -9 11 -19 0 -11 4
-22 9 -26 5 -3 9 -28 8 -55 0 -27 2 -52 5 -56 3 -3 1 -22 -4 -42 -11 -38 -13
-50 -23 -112 -7 -42 -9 -54 -34 -190 -11 -58 -25 -127 -31 -155 -6 -27 -13
-59 -15 -70 -2 -11 -4 -20 -5 -20 -2 0 -4 -37 -5 -83 -2 -46 -1 -82 1 -80 2 2
11 31 19 63 9 33 22 78 28 100 6 22 19 48 28 59 10 10 16 23 13 28 -3 4 0 8 5
8 6 0 11 -7 11 -15 0 -8 7 -15 16 -15 10 0 14 -6 10 -15 -3 -8 -1 -15 4 -15
14 0 8 -21 -17 -56 -19 -28 -20 -34 -8 -57 12 -24 11 -30 -8 -59 -13 -18 -24
-50 -26 -71 -1 -21 -10 -55 -18 -75 -14 -34 -27 -101 -38 -197 -9 -76 -16
-105 -24 -105 -5 0 -11 -7 -15 -15 -5 -13 94 -15 851 -15 765 0 854 2 843 15
-15 18 -8 28 20 30 13 1 20 -5 20 -16 0 -9 7 -20 16 -23 9 -3 2520 -6 5580 -6
l5564 0 0 6400 0 6400 -9600 0 -9600 0 0 -6400z m9017 5107 c-6 -19 -24 -18
-29 1 -4 15 -1 18 14 14 10 -2 17 -9 15 -15z m-157 -37 c0 -5 -7 -10 -15 -10
-8 0 -15 5 -15 10 0 6 7 10 15 10 8 0 15 -4 15 -10z m-55 -30 c-3 -5 -12 -10
-18 -10 -7 0 -6 4 3 10 19 12 23 12 15 0z m775 -10 c0 -5 -4 -10 -10 -10 -5 0
-10 5 -10 10 0 6 5 10 10 10 6 0 10 -4 10 -10z m-1040 -100 c0 -5 -4 -10 -10
-10 -5 0 -10 5 -10 10 0 6 5 10 10 10 6 0 10 -4 10 -10z m-145 -158 c3 -8 2
-18 -1 -21 -4 -3 -9 0 -11 7 -3 6 -18 12 -34 12 -17 0 -28 4 -25 8 9 15 65 10
71 -6z m-290 -32 c-3 -5 -13 -10 -21 -10 -8 0 -12 5 -9 10 3 6 13 10 21 10 8
0 12 -4 9 -10z m108 -30 c7 0 7 -4 -1 -12 -10 -10 -15 -10 -22 2 -5 8 -10 10
-10 4 0 -16 -40 -25 -59 -14 -14 8 -14 9 -1 14 30 10 55 14 68 10 8 -2 19 -4
25 -4z m178 -13 c-13 -13 -26 -3 -16 12 3 6 11 8 17 5 6 -4 6 -10 -1 -17z
m-188 -53 c21 2 40 6 44 10 3 3 17 6 30 6 17 0 23 -6 23 -21 0 -17 -6 -20 -32
-18 -18 1 -45 -3 -60 -9 -28 -12 -69 -12 -62 -1 2 4 -7 10 -21 13 -14 4 -25
10 -25 15 0 12 42 19 56 9 6 -4 27 -6 47 -4z m-183 -18 c0 -2 -7 -6 -15 -10
-8 -3 -15 -1 -15 4 0 6 7 10 15 10 8 0 15 -2 15 -4z m335 -47 c5 -5 1 -9 -12
-9 -11 0 -24 -7 -27 -16 -9 -24 -24 -8 -18 21 4 21 9 24 26 19 11 -3 25 -10
31 -15z m-195 -29 c0 -5 -9 -10 -21 -10 -11 0 -17 5 -14 10 3 6 13 10 21 10 8
0 14 -4 14 -10z m60 -10 c0 -5 -2 -10 -4 -10 -3 0 -8 5 -11 10 -3 6 -1 10 4
10 6 0 11 -4 11 -10z m-186 -15 c-4 -8 -8 -15 -10 -15 -2 0 -4 7 -4 15 0 8 4
15 10 15 5 0 7 -7 4 -15z m327 -2 c-5 -10 -13 -27 -16 -38 -6 -18 -8 -18 -17
-4 -10 14 -16 13 -55 -9 -45 -25 -60 -24 -50 3 8 18 93 62 125 64 18 1 20 -2
13 -16z m-203 -19 c-9 -9 -22 -14 -30 -11 -8 3 -4 8 12 15 35 15 37 14 18 -4z
m-172 -63 c-34 -33 -36 -7 -4 35 20 25 23 26 26 10 2 -10 -8 -30 -22 -45z
m3024 14 c7 -8 16 -13 20 -10 5 3 11 1 15 -5 9 -15 -37 -12 -57 4 -10 7 -18
16 -18 20 0 12 28 6 40 -9z m-3180 -40 c0 -15 -9 -31 -25 -41 -16 -11 -25 -26
-25 -43 0 -29 -34 -91 -50 -91 -14 0 -13 33 2 65 9 21 9 31 0 46 -10 15 -10
20 0 24 58 20 71 28 75 45 7 28 23 25 23 -5z m30 -75 c-6 -11 -8 -25 -5 -30 3
-5 1 -18 -4 -27 -8 -15 -11 -15 -12 -3 -4 39 1 73 12 87 17 20 24 0 9 -27z
m-260 -14 c0 -16 -18 -31 -27 -22 -8 8 5 36 17 36 5 0 10 -6 10 -14z m93 -13
c20 -6 18 -24 -3 -31 -7 -3 -10 0 -6 7 13 20 -5 12 -25 -11 -10 -13 -19 -32
-19 -43 0 -11 -7 -31 -15 -45 l-14 -25 -1 36 c0 20 7 42 15 49 11 9 12 17 4
32 -13 24 7 52 30 42 9 -3 24 -9 34 -11z m3457 -64 c0 -6 -4 -6 -12 1 -7 6
-22 17 -33 26 -17 13 -15 12 13 -1 17 -8 32 -20 32 -26z m-3325 21 c3 -5 1
-10 -4 -10 -6 0 -11 5 -11 10 0 6 2 10 4 10 3 0 8 -4 11 -10z m17 -68 c6 -39
0 -52 -23 -52 -10 0 -19 -5 -19 -12 0 -9 -3 -9 -12 0 -9 9 -9 18 0 36 7 16 8
27 1 31 -15 10 0 25 25 25 18 0 25 -7 28 -28z m-232 -60 c0 -19 -18 -42 -32
-42 -12 0 -9 35 4 48 17 17 28 15 28 -6z m249 -25 c-11 -25 -69 -54 -69 -34 0
18 42 57 62 57 15 0 16 -4 7 -23z m531 2 c0 -6 -4 -7 -10 -4 -5 3 -10 11 -10
16 0 6 5 7 10 4 6 -3 10 -11 10 -16z m-100 -28 c5 -18 5 -33 -1 -36 -12 -8
-32 44 -24 63 7 19 13 12 25 -27z m-430 -21 c0 -5 7 -10 16 -10 13 0 15 -7 11
-29 -4 -19 -2 -31 6 -35 7 -2 1 -5 -13 -6 -25 -1 -25 -1 -3 -10 12 -5 24 -19
27 -32 21 -114 27 -165 27 -233 0 -44 5 -96 11 -115 8 -26 8 -35 -2 -38 -10
-4 -10 -6 0 -12 13 -8 17 -124 4 -162 l-7 -23 -9 24 c-14 38 -17 21 -9 -48 6
-50 5 -64 -6 -68 -8 -3 -19 -17 -24 -30 -9 -24 -32 -23 -27 0 1 7 -1 35 -5 62
-4 28 -9 76 -12 109 -3 32 -7 62 -10 66 -2 3 2 18 9 32 8 14 10 31 6 38 -5 8
-7 22 -5 32 5 22 6 141 4 291 -1 96 -3 107 -20 107 -15 0 -17 6 -12 38 6 38
19 62 34 62 5 0 9 -4 9 -10z m3415 -151 c16 -16 -20 -10 -41 7 -18 14 -18 15
6 8 14 -3 29 -10 35 -15z m50 -19 c8 -13 -5 -13 -25 0 -13 8 -13 10 2 10 9 0
20 -4 23 -10z m-2610 -30 c3 -5 2 -10 -4 -10 -5 0 -13 5 -16 10 -3 6 -2 10 4
10 5 0 13 -4 16 -10z m-31 -21 c33 -15 45 -43 14 -33 -26 8 -67 44 -50 44 6 0
22 -5 36 -11z m-1224 -29 c-1 -23 -57 -60 -91 -60 -13 0 -18 -7 -18 -27 0
-105 -14 -183 -31 -183 -24 0 -34 63 -20 120 6 22 6 38 0 44 -7 7 -10 2 -10
-14 0 -23 -24 -102 -37 -123 -10 -17 -33 25 -33 59 0 46 -15 50 -52 15 l-33
-31 -9 26 c-6 20 -4 30 13 48 27 29 27 36 -1 28 -22 -5 -22 -5 -6 12 12 12 25
15 40 10 19 -6 21 -5 11 8 -16 19 -7 28 28 28 14 0 39 7 55 15 16 8 38 12 50
9 14 -4 23 0 27 10 4 11 20 14 61 13 31 -1 56 -4 56 -7z m295 0 c-3 -5 -10
-10 -16 -10 -5 0 -9 5 -9 10 0 6 7 10 16 10 8 0 12 -4 9 -10z m362 4 c-3 -3
-12 -4 -19 -1 -8 3 -5 6 6 6 11 1 17 -2 13 -5z m613 -45 c0 -6 -4 -7 -10 -4
-5 3 -10 11 -10 16 0 6 5 7 10 4 6 -3 10 -11 10 -16z m-60 -9 c0 -5 -4 -10 -9
-10 -6 0 -13 5 -16 10 -3 6 1 10 9 10 9 0 16 -4 16 -10z m253 -10 c3 -11 1
-20 -4 -20 -5 0 -9 2 -9 4 0 2 -3 11 -6 20 -3 9 -2 16 4 16 5 0 12 -9 15 -20z
m-1213 -20 c0 -5 -5 -10 -11 -10 -5 0 -7 5 -4 10 3 6 8 10 11 10 2 0 4 -4 4
-10z m570 -22 c0 -5 -9 -8 -20 -8 -13 0 -20 7 -20 20 0 18 2 19 20 8 11 -7 20
-16 20 -20z m-90 12 c0 -5 -2 -10 -4 -10 -3 0 -8 5 -11 10 -3 6 -1 10 4 10 6
0 11 -4 11 -10z m-486 -52 c8 -31 7 -38 -3 -38 -5 0 -11 14 -13 30 -5 35 7 41
16 8z m556 12 c0 -5 -2 -10 -4 -10 -3 0 -8 5 -11 10 -3 6 -1 10 4 10 6 0 11
-4 11 -10z m-1075 -100 c-3 -5 -11 -10 -16 -10 -6 0 -7 5 -4 10 3 6 11 10 16
10 6 0 7 -4 4 -10z m529 -21 c-3 -5 -10 -7 -15 -3 -5 3 -7 10 -3 15 3 5 10 7
15 3 5 -3 7 -10 3 -15z m-311 -2 c-2 -4 -3 -11 -3 -16 0 -10 -51 -22 -62 -15
-12 7 2 33 20 37 23 5 48 1 45 -6z m1719 -42 c-6 -34 -12 -32 -12 6 0 16 4 28
9 25 4 -3 6 -17 3 -31z m-1367 -15 c-10 -11 -23 -20 -28 -20 -18 0 -46 -31
-40 -46 4 -10 -3 -14 -21 -14 -31 0 -32 4 -6 30 11 11 20 26 20 33 0 14 42 34
74 36 18 1 18 0 1 -19z m-950 -20 c8 -16 15 -38 15 -49 0 -11 9 -22 20 -26 11
-4 18 -10 16 -14 -8 -12 14 -95 30 -112 16 -18 15 -58 -3 -77 -7 -7 -13 -22
-13 -34 0 -27 -25 -17 -26 10 -1 12 3 22 7 22 17 0 9 22 -18 56 -81 98 -103
136 -103 180 0 15 6 24 16 24 11 0 14 5 10 16 -16 42 27 46 49 4z m525 6 c0
-3 -4 -8 -10 -11 -5 -3 -10 -1 -10 4 0 6 5 11 10 11 6 0 10 -2 10 -4z m-51
-55 c8 -5 9 -11 3 -15 -5 -3 -15 1 -22 9 -14 16 -3 20 19 6z m-47 -66 c-2 -16
-10 -36 -17 -44 -12 -13 -15 -12 -21 4 -4 10 -2 26 5 36 7 12 7 19 1 19 -5 0
-10 5 -10 11 0 6 10 9 23 7 18 -2 21 -8 19 -33z m238 -22 c0 -14 -4 -22 -10
-18 -7 4 -9 -2 -6 -17 17 -83 18 -93 7 -78 -6 8 -11 23 -11 33 0 21 1 21 -39
1 -18 -9 -35 -13 -38 -10 -10 10 29 46 49 46 17 0 19 5 13 39 -6 36 -5 39 14
34 14 -4 21 -13 21 -30z m770 33 c0 -3 -4 -8 -10 -11 -5 -3 -10 -1 -10 4 0 6
5 11 10 11 6 0 10 -2 10 -4z m-557 -25 c29 -15 38 -38 10 -26 -10 4 -26 10
-35 12 -10 3 -18 12 -18 20 0 8 3 13 8 11 4 -2 19 -10 35 -17z m817 -21 c0 -5
-4 -10 -10 -10 -5 0 -10 5 -10 10 0 6 5 10 10 10 6 0 10 -4 10 -10z m545 0 c3
-5 1 -10 -4 -10 -6 0 -11 5 -11 10 0 6 2 10 4 10 3 0 8 -4 11 -10z m-405 -10
c0 -5 -5 -10 -11 -10 -5 0 -7 5 -4 10 3 6 8 10 11 10 2 0 4 -4 4 -10z m-1450
-22 c0 -19 -18 -43 -25 -36 -4 3 -2 16 5 27 12 24 20 27 20 9z m1310 -2 c0 -3
-4 -8 -10 -11 -5 -3 -10 -1 -10 4 0 6 5 11 10 11 6 0 10 -2 10 -4z m20 -37 c0
-6 -4 -7 -10 -4 -5 3 -10 11 -10 16 0 6 5 7 10 4 6 -3 10 -11 10 -16z m-1730
-8 c0 -12 -20 -25 -27 -18 -7 7 6 27 18 27 5 0 9 -4 9 -9z m370 -8 c-1 -11
-26 -43 -34 -43 -8 0 -8 35 1 43 9 9 33 9 33 0z m4375 -23 c10 -11 13 -20 7
-20 -6 0 -16 9 -22 20 -6 11 -9 20 -7 20 2 0 12 -9 22 -20z m-2975 -20 c0 -5
-4 -10 -9 -10 -6 0 -13 5 -16 10 -3 6 1 10 9 10 9 0 16 -4 16 -10z m-662 -33
c5 -24 -15 -21 -21 4 -3 13 -1 19 6 16 7 -2 13 -11 15 -20z m-633 -6 c-3 -6
-11 -11 -17 -11 -6 0 -6 6 2 15 14 17 26 13 15 -4z m-252 -27 c3 -19 1 -24
-10 -20 -8 3 -17 6 -19 6 -2 0 -4 11 -4 25 0 32 26 23 33 -11z m333 2 c-9 -14
-16 -34 -16 -45 0 -11 -5 -23 -11 -26 -12 -8 -15 -6 -23 21 -5 16 2 30 24 54
34 37 51 34 26 -4z m700 -3 c-10 -10 -19 5 -10 18 6 11 8 11 12 0 2 -7 1 -15
-2 -18z m-1345 -35 c17 -18 43 -46 58 -63 16 -16 36 -43 45 -60 23 -41 55
-138 50 -147 -10 -15 -24 -8 -24 13 0 11 -4 17 -10 14 -5 -3 -10 0 -10 8 0 10
-8 13 -25 9 -16 -3 -25 0 -25 8 0 7 -12 24 -26 37 -25 23 -25 25 -9 43 16 18
15 22 -29 79 -29 37 -44 65 -40 75 8 22 10 21 45 -16z m1318 -4 c-14 -18 -24
-11 -15 11 3 9 11 13 16 10 8 -5 7 -11 -1 -21z m-278 -21 l24 -27 -24 15 c-14
9 -27 21 -29 27 -6 19 3 14 29 -15z m175 -20 c4 -20 15 -51 24 -67 10 -17 21
-53 24 -81 4 -27 12 -62 18 -77 12 -33 4 -60 -15 -52 -16 6 -37 47 -37 72 0
10 -5 23 -12 30 -6 6 -12 32 -13 57 0 29 -6 50 -15 56 -11 7 -12 11 -3 17 10
6 9 14 -2 36 -16 30 -12 46 10 46 8 0 17 -15 21 -37z m-684 -7 c-5 -41 -33
-60 -30 -21 1 14 6 25 11 25 4 0 6 4 3 9 -4 5 0 12 6 14 7 3 13 6 13 6 1 1 -1
-14 -3 -33z m566 21 c16 -18 26 -67 14 -67 -13 0 -42 45 -42 65 0 18 14 20 28
2z m202 -6 c0 -13 -26 -32 -33 -24 -8 7 11 33 24 33 5 0 9 -4 9 -9z m-300 -5
c0 -2 -7 -6 -15 -10 -8 -3 -15 -1 -15 4 0 6 7 10 15 10 8 0 15 -2 15 -4z
m-837 -40 c28 10 48 -20 45 -66 l-3 -44 -52 52 c-57 56 -59 62 -41 80 9 9 15
7 25 -8 7 -10 19 -17 26 -14z m1247 -6 c0 -5 -4 -10 -10 -10 -5 0 -10 5 -10
10 0 6 5 10 10 10 6 0 10 -4 10 -10z m-92 -35 c15 -33 15 -35 -2 -35 -8 0 -16
13 -18 30 -6 37 5 39 20 5z m-283 -33 c0 -18 -20 -15 -23 4 -3 10 1 15 10 12
7 -3 13 -10 13 -16z m1405 -12 c0 -5 -4 -10 -10 -10 -5 0 -10 5 -10 10 0 6 5
10 10 10 6 0 10 -4 10 -10z m-1110 -21 c0 -5 -4 -9 -10 -9 -5 0 -10 7 -10 16
0 8 5 12 10 9 6 -3 10 -10 10 -16z m207 -11 c-3 -8 -6 -5 -6 6 -1 11 2 17 5
13 3 -3 4 -12 1 -19z m-578 -8 c11 0 36 -13 54 -30 19 -16 40 -30 46 -30 6 0
11 -4 11 -10 0 -5 -4 -10 -10 -10 -5 0 -10 -6 -10 -14 0 -8 -4 -17 -9 -20 -13
-9 -83 23 -76 34 6 10 5 11 -33 15 -22 2 -72 47 -72 65 0 12 42 18 62 8 9 -4
26 -8 37 -8z m99 -11 c2 -23 2 -23 -13 -5 -18 24 -20 39 -2 34 6 -3 13 -15 15
-29z m692 -39 c0 -5 -2 -10 -4 -10 -3 0 -8 5 -11 10 -3 6 -1 10 4 10 6 0 11
-4 11 -10z m-320 -20 c0 -5 -4 -10 -10 -10 -5 0 -10 5 -10 10 0 6 5 10 10 10
6 0 10 -4 10 -10z m-805 -30 c3 -5 1 -10 -4 -10 -6 0 -11 5 -11 10 0 6 2 10 4
10 3 0 8 -4 11 -10z m-357 -19 c3 -8 -1 -12 -9 -9 -7 2 -15 10 -17 17 -3 8 1
12 9 9 7 -2 15 -10 17 -17z m822 9 c0 -5 -2 -10 -4 -10 -3 0 -8 5 -11 10 -3 6
-1 10 4 10 6 0 11 -4 11 -10z m620 -10 c0 -5 -2 -10 -4 -10 -3 0 -8 5 -11 10
-3 6 -1 10 4 10 6 0 11 -4 11 -10z m-1060 -10 c0 -5 -4 -10 -10 -10 -5 0 -10
5 -10 10 0 6 5 10 10 10 6 0 10 -4 10 -10z m230 -12 c0 -5 10 -6 22 -2 20 6
21 5 9 -10 -17 -20 -47 -21 -55 0 -10 25 -7 34 9 28 8 -4 15 -10 15 -16z m270
-29 c0 -10 -43 -12 -52 -3 -3 3 -4 14 -1 24 5 18 7 18 29 3 13 -8 24 -19 24
-24z m213 31 c7 0 4 -5 -6 -11 -18 -11 -37 -5 -37 13 0 5 7 7 16 4 9 -3 21 -6
27 -6z m737 0 c0 -5 -2 -10 -4 -10 -3 0 -8 5 -11 10 -3 6 -1 10 4 10 6 0 11
-4 11 -10z m-1282 -6 c12 -4 22 -12 22 -19 0 -7 12 -16 27 -19 24 -7 25 -9 11
-23 -15 -14 -19 -14 -49 1 -63 32 -76 15 -34 -46 19 -29 26 -53 29 -108 2 -44
9 -77 18 -88 9 -9 19 -35 22 -57 4 -22 18 -56 30 -75 13 -19 27 -46 31 -60 4
-14 11 -27 16 -30 9 -6 21 -84 23 -145 1 -22 6 -49 13 -60 20 -36 43 -141 43
-199 0 -41 4 -56 14 -56 19 0 49 -113 42 -158 -4 -20 -9 -64 -11 -97 -3 -33
-7 -87 -10 -121 -6 -67 7 -108 48 -158 19 -23 35 -30 82 -37 36 -5 66 -4 78 2
25 14 33 4 20 -24 -6 -12 -16 -60 -23 -107 -23 -165 -23 -175 -6 -189 14 -12
16 -10 16 15 0 16 10 61 21 99 26 91 27 97 42 185 7 47 23 93 41 123 16 27 41
99 58 165 30 117 42 147 59 136 5 -3 8 14 7 38 0 24 7 74 17 112 17 61 17 80
7 162 -7 51 -19 113 -28 136 -8 24 -22 70 -31 103 -8 33 -22 80 -30 105 -9 25
-19 75 -24 112 -4 38 -11 73 -15 80 -14 22 -15 70 -2 65 7 -2 13 -12 13 -23 1
-23 13 -44 25 -44 18 0 20 40 3 66 l-18 27 28 -17 c25 -17 32 -32 28 -64 -1
-8 3 -20 9 -27 7 -8 8 -20 4 -27 -5 -8 -1 -8 11 2 17 14 18 13 12 -10 -4 -19
0 -29 18 -43 l24 -18 -2 35 c-4 60 17 41 39 -36 14 -47 18 -75 11 -79 -5 -4
-8 -13 -5 -20 7 -19 5 -35 -4 -32 -5 2 -8 -1 -8 -6 0 -5 9 -11 20 -14 15 -4
20 -14 20 -40 0 -45 17 -57 30 -21 l10 26 26 -26 c15 -14 30 -23 35 -20 10 6
12 -26 3 -50 -8 -22 -23 -10 -17 13 3 10 1 21 -4 24 -5 3 -14 -12 -20 -34 -6
-22 -6 -39 -1 -39 5 0 13 -10 19 -22 l10 -23 -5 23 c-2 12 0 22 5 22 5 0 9 -4
9 -9 0 -6 12 -9 27 -8 26 2 27 0 25 -48 -1 -37 1 -45 8 -30 5 11 9 37 9 57 1
39 13 53 36 44 11 -4 12 -12 4 -38 -27 -91 -41 -144 -40 -155 1 -7 2 -23 3
-35 2 -28 17 -39 41 -32 11 4 24 -1 34 -13 12 -15 14 -15 10 -1 -8 22 2 29 24
17 25 -13 24 -30 -2 -60 -12 -13 -30 -35 -40 -48 -24 -30 -31 -24 -19 17 8 31
8 32 -12 18 -19 -14 -48 -59 -48 -77 0 -5 6 -9 14 -9 10 0 12 -7 8 -22 -3 -14
-2 -19 6 -14 7 4 12 3 12 -2 0 -5 -9 -12 -20 -15 -13 -3 -22 -17 -26 -36 -9
-41 -24 -50 -24 -14 l0 28 -20 -25 c-25 -32 -37 -20 -14 15 17 26 17 27 -2 23
-10 -2 -19 -10 -19 -18 -1 -25 -15 -39 -33 -33 -16 6 -16 6 0 -10 9 -9 21 -17
27 -17 6 0 11 -4 11 -9 0 -5 9 -11 20 -14 13 -3 18 -10 14 -21 -4 -11 0 -16
14 -16 11 0 23 6 25 13 4 7 6 6 6 -4 1 -26 -23 -67 -55 -91 -16 -12 -33 -28
-37 -35 -14 -23 -27 -15 -17 11 6 18 5 26 -5 30 -14 5 -9 46 6 46 5 0 9 5 9
11 0 8 -4 8 -14 0 -10 -8 -16 -9 -21 -1 -9 14 -48 -7 -42 -23 2 -7 -4 -34 -13
-62 -20 -57 -35 -180 -23 -198 4 -7 9 -27 10 -46 1 -19 7 -37 12 -40 12 -8 14
-53 5 -138 -5 -51 -3 -68 12 -90 10 -16 17 -36 16 -45 -2 -10 4 -28 12 -40 11
-15 16 -45 16 -92 l0 -70 21 20 c25 26 41 89 29 119 -5 13 -5 26 1 32 6 6 1 9
-13 9 -15 -1 -23 5 -23 15 0 9 -5 23 -12 30 -15 19 -8 93 11 121 9 12 16 32
16 43 0 12 5 26 12 33 9 9 8 12 -5 12 -24 0 -21 15 8 38 28 22 38 83 18 103
-16 16 5 69 35 93 18 14 22 26 19 45 -7 32 37 117 64 124 19 5 36 38 46 91 4
17 2 27 -3 23 -23 -14 -33 9 -17 41 16 33 27 39 38 22 10 -16 23 -12 30 10 12
36 28 22 22 -19 -4 -31 -2 -38 9 -34 9 3 14 -2 14 -14 0 -11 9 -28 19 -37 18
-17 20 -17 41 4 22 22 33 45 44 95 l6 30 -19 -22 c-20 -24 -33 -21 -24 5 4 9
2 13 -4 9 -6 -4 -13 2 -16 13 -3 11 -2 20 3 20 4 0 10 9 13 20 3 11 11 20 17
20 8 0 10 -9 6 -26 l-7 -27 31 32 c18 17 36 29 41 25 22 -13 49 8 49 38 0 30
0 31 20 13 20 -18 20 -17 20 14 0 44 22 36 33 -12 5 -20 13 -37 18 -37 5 0 9
-9 9 -20 0 -11 -4 -20 -10 -20 -5 0 -10 6 -10 13 0 17 -37 39 -45 26 -4 -5 -4
-16 -1 -24 3 -9 -1 -15 -9 -15 -8 0 -14 -6 -13 -12 2 -7 -3 -12 -9 -10 -7 1
-13 -3 -13 -10 0 -7 -11 -24 -25 -38 -13 -14 -26 -36 -28 -50 -2 -13 -9 -26
-15 -28 -7 -2 -12 -19 -12 -39 0 -29 3 -33 18 -28 17 5 18 1 12 -27 -14 -70
-54 -133 -47 -77 1 12 -3 24 -9 26 -12 4 -28 -47 -26 -87 0 -15 -1 -18 -5 -7
-6 22 -23 22 -23 0 0 -17 -42 -79 -67 -100 -11 -9 -12 -16 -3 -32 6 -12 15
-21 21 -21 15 0 39 -27 31 -35 -4 -3 1 -13 11 -20 14 -10 17 -20 12 -36 -7
-22 -8 -22 -21 -4 -13 18 -14 18 -14 -3 0 -13 -6 -22 -15 -22 -14 0 -37 -32
-33 -47 8 -31 -35 -158 -63 -183 -3 -3 -11 -20 -18 -37 -7 -18 -24 -44 -37
-58 -31 -34 -40 -105 -24 -189 10 -46 18 -66 31 -69 13 -4 19 3 23 28 5 23 12
32 23 31 9 -2 19 -8 21 -14 2 -7 10 -12 18 -12 8 0 11 -6 7 -17 -4 -11 -3 -14
5 -9 7 4 12 18 12 31 0 13 4 26 9 29 5 3 3 23 -5 43 -7 21 -14 47 -14 58 -1
13 -4 15 -7 6 -5 -11 -7 -11 -14 0 -8 12 -11 12 -18 -1 -15 -22 -26 -3 -13 23
6 12 16 39 22 59 14 45 80 115 127 134 29 12 32 18 27 39 -5 19 1 37 22 66 24
36 26 42 12 55 -8 8 -24 16 -36 17 -26 2 -25 -1 -10 32 6 14 17 25 25 25 7 0
13 9 13 21 0 15 4 19 15 15 8 -3 22 -9 30 -12 9 -4 15 0 15 9 0 8 6 18 13 21
6 3 2 3 -9 1 -18 -5 -21 -2 -17 20 3 13 9 23 13 20 5 -3 10 0 12 6 2 5 11 7
22 3 13 -5 15 -9 5 -15 -8 -4 -11 -11 -7 -14 3 -4 15 4 27 16 l21 23 0 -31 c0
-25 -6 -33 -27 -41 l-28 -10 33 -1 c23 -1 32 -6 32 -18 0 -13 -3 -14 -12 -5
-7 7 -17 8 -30 1 -24 -13 -23 -32 2 -24 11 3 29 4 39 0 17 -5 18 -10 8 -41 -8
-27 -15 -34 -29 -31 -21 6 -23 0 -5 -17 21 -22 64 -17 72 8 6 18 8 16 17 -16
7 -27 15 -38 29 -38 17 0 18 -3 9 -20 -9 -16 -8 -18 5 -14 8 4 15 1 15 -5 0
-37 81 16 96 62 3 11 15 30 25 41 15 15 16 22 7 28 -10 7 -9 8 2 6 22 -3 60
12 60 24 0 21 -34 36 -68 31 -25 -4 -38 -1 -52 15 -19 20 -18 20 8 25 15 3 32
1 38 -4 6 -5 14 -6 17 -3 3 3 12 2 19 -2 28 -18 108 -25 102 -10 -2 6 0 17 5
25 12 18 55 -4 47 -25 -3 -8 -1 -14 4 -14 6 0 10 5 10 12 0 6 3 8 7 5 3 -4 -2
-15 -11 -26 -12 -14 -14 -21 -6 -26 7 -4 16 -3 22 3 10 10 48 5 48 -7 -1 -14
-18 -33 -27 -28 -5 3 -10 -5 -11 -19 -2 -28 14 -31 61 -10 63 27 82 32 100 28
27 -6 17 -38 -11 -34 -16 2 -32 -8 -54 -32 -17 -20 -36 -36 -42 -36 -5 0 0 10
12 23 30 31 28 38 -7 26 -21 -8 -36 -7 -52 2 -18 9 -25 9 -33 -3 -6 -7 -24
-15 -40 -16 -16 -1 -37 -11 -47 -23 -10 -11 -22 -18 -28 -15 -6 4 -9 -7 -7
-29 1 -19 0 -35 -4 -35 -3 0 -6 -8 -6 -19 0 -14 7 -18 31 -17 20 1 29 7 28 17
-1 7 9 22 23 32 20 15 25 16 30 4 3 -9 13 -13 27 -9 20 5 20 6 1 13 -18 7 -17
8 4 8 14 1 22 7 22 18 0 14 3 14 12 5 8 -8 9 -15 3 -20 -15 -11 -17 -32 -2
-32 9 0 12 -9 9 -28 -3 -24 -12 -31 -55 -46 -29 -9 -58 -17 -64 -18 -7 -1 -13
-5 -13 -9 0 -4 -21 -17 -47 -30 -138 -64 -480 -280 -523 -329 -3 -3 -25 -21
-50 -40 -25 -19 -51 -43 -58 -53 -8 -9 -29 -34 -48 -55 -57 -61 -111 -135
-119 -162 -9 -32 -74 -161 -91 -180 -12 -14 -14 -20 -14 -39 0 -5 -7 -8 -16
-7 -9 0 -21 -8 -28 -18 -6 -11 -37 -56 -68 -100 -32 -44 -58 -85 -58 -93 0 -7
-5 -13 -11 -13 -7 0 -9 -10 -5 -25 5 -19 3 -23 -9 -19 -10 4 -15 0 -15 -11 0
-9 -7 -23 -15 -32 -13 -12 -13 -18 -3 -31 11 -13 10 -14 -15 -8 -16 4 -26 3
-24 -1 3 -4 -9 -8 -26 -9 -18 0 -56 -4 -86 -9 -37 -5 -52 -5 -48 2 4 6 0 13
-8 17 -8 3 -15 10 -15 15 0 5 -21 40 -46 77 -34 50 -44 72 -40 90 5 17 2 24
-7 24 -15 0 -37 41 -37 69 0 10 -6 24 -14 30 -21 18 -97 172 -90 183 4 6 1 20
-5 31 -19 39 -61 169 -87 272 -14 55 -31 120 -39 145 -45 143 -109 461 -121
600 -3 41 -12 94 -20 118 -8 24 -12 48 -9 53 3 5 -4 22 -17 39 -17 23 -29 30
-53 28 -53 -3 -75 10 -71 40 14 106 20 132 27 132 5 0 9 -9 9 -19 0 -11 8 -22
18 -26 11 -3 25 -23 32 -45 14 -41 35 -51 58 -28 25 25 3 218 -25 218 -7 0
-12 3 -11 8 0 4 -2 14 -6 24 -4 9 -3 33 3 53 9 33 8 38 -10 42 -25 7 -25 45 1
68 20 18 20 17 20 -15 0 -27 3 -31 12 -22 7 7 20 12 30 12 15 0 17 -3 8 -19
-14 -28 -13 -31 14 -31 19 0 27 8 36 35 6 19 15 35 19 35 9 0 51 82 51 99 0 6
-9 11 -19 11 -11 0 -23 5 -26 10 -3 6 1 10 10 10 13 0 14 4 5 20 -8 16 -8 24
4 35 10 10 13 26 9 48 -4 24 0 37 16 51 12 11 21 23 21 28 0 5 12 19 26 31
l26 23 -31 44 c-18 25 -42 61 -55 80 -13 19 -31 42 -40 49 -49 41 -93 162
-103 284 -4 50 -7 57 -26 57 -29 0 -117 56 -117 74 0 8 12 13 33 14 68 2 71 2
59 14 -19 19 6 38 49 38 22 0 39 5 39 10 0 6 -4 10 -10 10 -5 0 -10 5 -10 10
0 16 27 12 34 -5 11 -29 76 -9 76 24 0 12 14 14 48 5z m152 -24 c0 -5 -2 -10
-4 -10 -3 0 -8 5 -11 10 -3 6 -1 10 4 10 6 0 11 -4 11 -10z m930 6 c0 -3 -4
-8 -10 -11 -5 -3 -10 -1 -10 4 0 6 5 11 10 11 6 0 10 -2 10 -4z m-1580 -16 c0
-5 -4 -10 -10 -10 -5 0 -10 5 -10 10 0 6 5 10 10 10 6 0 10 -4 10 -10z m1370
-92 c0 -12 -17 -9 -28 5 -5 6 -13 23 -16 37 -7 24 -6 24 18 -5 14 -16 26 -33
26 -37z m18 51 c-2 -6 -8 -10 -13 -10 -5 0 -11 4 -13 10 -2 6 4 11 13 11 9 0
15 -5 13 -11z m-110 -33 c3 -12 -1 -17 -10 -14 -7 3 -15 13 -16 22 -3 12 1 17
10 14 7 -3 15 -13 16 -22z m-34 -58 c9 -36 7 -48 -9 -48 -8 0 -15 4 -15 10 0
5 -7 7 -15 4 -10 -4 -15 0 -15 11 0 9 5 13 11 9 8 -4 9 0 4 15 -5 16 -2 21 13
21 12 0 22 -9 26 -22z m-1529 2 c3 -5 1 -10 -4 -10 -6 0 -11 5 -11 10 0 6 2
10 4 10 3 0 8 -4 11 -10z m1373 -2 c7 -7 12 -19 12 -27 0 -11 -5 -9 -20 7 -11
12 -20 24 -20 27 0 9 16 5 28 -7z m463 -1 c-1 -12 -15 -9 -19 4 -3 6 1 10 8 8
6 -3 11 -8 11 -12z m349 3 c0 -5 -2 -10 -4 -10 -3 0 -8 5 -11 10 -3 6 -1 10 4
10 6 0 11 -4 11 -10z m-476 -6 c16 -6 23 -44 8 -44 -5 0 -14 11 -20 25 -12 27
-12 28 12 19z m-120 -40 c9 -4 16 -17 15 -33 0 -15 -3 -20 -6 -11 -3 8 -12 23
-21 33 -16 18 -13 21 12 11z m-1651 -25 c4 -16 2 -17 -14 -8 -22 12 -25 26 -5
26 8 0 17 -9 19 -18z m1852 -16 c9 -21 14 -47 12 -58 -3 -16 -5 -14 -11 10 -4
17 -11 38 -17 47 -5 10 -9 22 -9 28 0 20 10 9 25 -27z m-1375 -8 c-8 -21 -7
-25 10 -25 12 0 21 -7 21 -17 4 -48 7 -61 23 -85 16 -25 16 -27 -1 -47 -9 -12
-24 -21 -33 -21 -11 1 -9 6 8 19 25 22 28 31 8 31 -23 0 -49 49 -42 81 4 24 2
29 -13 29 -17 0 -29 14 -31 38 -1 6 28 18 52 21 4 1 3 -10 -2 -24z m1275 15
c3 -5 12 -7 20 -3 10 3 15 -1 15 -12 0 -9 14 -30 31 -46 31 -29 35 -54 5 -30
-8 7 -22 11 -32 9 -11 -2 -23 6 -30 20 -6 12 -22 34 -34 47 -23 25 -23 25 -2
25 11 0 23 -4 27 -10z m-1819 -45 c11 -27 -1 -39 -19 -21 -17 17 -15 36 4 36
5 0 12 -7 15 -15z m1726 -16 c23 -26 26 -33 15 -50 -6 -10 -16 -18 -22 -16
-15 5 -44 67 -38 83 8 20 15 18 45 -17z m488 21 c0 -5 -2 -10 -4 -10 -3 0 -8
5 -11 10 -3 6 -1 10 4 10 6 0 11 -4 11 -10z m463 -10 c3 -11 1 -20 -4 -20 -5
0 -9 2 -9 4 0 2 -3 11 -6 20 -3 9 -2 16 4 16 5 0 12 -9 15 -20z m-143 -11 c0
-5 -4 -9 -10 -9 -5 0 -10 7 -10 16 0 8 5 12 10 9 6 -3 10 -10 10 -16z m-1056
-44 c9 -46 8 -50 -6 -50 -13 0 -30 73 -21 88 8 14 21 -3 27 -38z m586 -33 c0
-15 -2 -15 -10 -2 -13 20 -13 33 0 25 6 -3 10 -14 10 -23z m96 -7 c3 -19 10
-35 14 -35 4 0 10 -8 14 -17 3 -10 9 -25 12 -33 3 -8 -4 -4 -15 10 l-21 25 0
-23 c0 -15 -5 -22 -12 -19 -7 2 -12 12 -10 22 5 26 -7 65 -19 65 -6 0 -7 -5
-4 -10 9 -15 -4 -70 -17 -70 -6 0 -8 9 -5 20 3 10 0 21 -5 22 -13 5 16 64 34
71 24 10 27 7 34 -28z m-146 17 c0 -4 -5 -13 -11 -19 -7 -7 -4 -21 12 -47 25
-43 22 -51 -14 -33 -15 8 -24 17 -20 20 3 4 0 13 -6 21 -8 10 -9 16 -1 21 6 3
7 11 4 17 -4 6 0 14 7 19 18 11 29 11 29 1z m-580 -22 c0 -11 -4 -20 -10 -20
-5 0 -10 9 -10 20 0 11 5 20 10 20 6 0 10 -9 10 -20z m618 -39 c3 -8 -1 -12
-9 -9 -7 2 -15 10 -17 17 -3 8 1 12 9 9 7 -2 15 -10 17 -17z m-1662 -18 c-1
-16 5 -35 12 -45 18 -21 12 -72 -9 -76 -12 -2 -16 7 -18 45 0 26 -4 56 -7 67
-5 14 7 34 22 36 1 0 0 -12 0 -27z m1554 1 c0 -8 -4 -12 -10 -9 -5 3 -10 13
-10 21 0 8 5 12 10 9 6 -3 10 -13 10 -21z m337 4 c-3 -8 -6 -5 -6 6 -1 11 2
17 5 13 3 -3 4 -12 1 -19z m113 2 c13 -24 2 -50 -11 -29 -9 15 -12 49 -4 49 2
0 9 -9 15 -20z m-324 -27 c-10 -10 -19 5 -10 18 6 11 8 11 12 0 2 -7 1 -15 -2
-18z m160 -19 c-5 -19 -10 -24 -17 -17 -8 8 -7 18 1 33 15 28 24 19 16 -16z
m-1673 -12 c-3 -12 -12 -22 -20 -22 -14 0 -10 12 12 36 13 16 15 13 8 -14z
m1195 -3 c-2 -6 -8 -10 -13 -10 -5 0 -11 4 -13 10 -2 6 4 11 13 11 9 0 15 -5
13 -11z m47 1 c3 -5 1 -10 -4 -10 -6 0 -11 5 -11 10 0 6 2 10 4 10 3 0 8 -4
11 -10z m623 -15 c14 -29 -2 -34 -18 -6 -12 24 -13 31 -2 31 5 0 14 -11 20
-25z m92 21 c0 -3 -4 -8 -10 -11 -5 -3 -10 -1 -10 4 0 6 5 11 10 11 6 0 10 -2
10 -4z m-471 -47 c-12 -22 -13 -23 -17 -4 -2 10 1 21 7 23 6 2 8 9 5 15 -5 9
-4 9 5 1 10 -10 10 -17 0 -35z m2766 31 c3 -5 -1 -10 -9 -10 -8 0 -18 5 -21
10 -3 6 1 10 9 10 8 0 18 -4 21 -10z m-2680 -9 c3 -5 1 -12 -5 -16 -5 -3 -10
1 -10 9 0 18 6 21 15 7z m-621 -17 c9 -22 8 -24 -9 -18 -8 4 -15 12 -15 20 0
19 16 18 24 -2z m786 6 c0 -5 -2 -10 -4 -10 -3 0 -8 5 -11 10 -3 6 -1 10 4 10
6 0 11 -4 11 -10z m200 -11 c0 -6 -4 -7 -10 -4 -5 3 -10 11 -10 16 0 6 5 7 10
4 6 -3 10 -11 10 -16z m-675 -26 c17 -25 15 -40 -4 -28 -6 3 -9 10 -6 15 3 5
-4 11 -15 15 -11 3 -20 13 -20 20 0 20 26 8 45 -22z m-1165 -3 c0 -16 -23 -60
-32 -60 -12 0 -10 44 4 58 14 14 28 16 28 2z m1300 -9 c0 -22 -16 -36 -24 -22
-8 12 3 41 15 41 5 0 9 -9 9 -19z m160 -26 c0 -25 -4 -45 -10 -45 -5 0 -10 -7
-10 -15 0 -30 -18 -14 -25 22 -5 27 -3 38 9 45 8 5 13 15 10 23 -4 9 0 15 10
15 12 0 16 -10 16 -45z m-216 -23 c8 -52 7 -72 -3 -72 -12 0 -18 17 -26 74 -6
39 -5 45 8 41 8 -4 17 -23 21 -43z m666 22 c0 -8 -4 -12 -10 -9 -5 3 -10 13
-10 21 0 8 5 12 10 9 6 -3 10 -13 10 -21z m-395 -43 c4 -34 2 -57 -7 -73 -12
-21 -13 -17 -19 47 -4 39 -4 73 -2 78 10 16 21 -6 28 -52z m110 24 c0 -14 -3
-25 -7 -25 -5 0 -8 11 -8 25 0 14 3 25 8 25 4 0 7 -11 7 -25z m471 -12 c-11
-11 -19 6 -11 24 8 17 8 17 12 0 3 -10 2 -21 -1 -24z m-501 -25 c3 1 4 1 3 0
-1 -2 4 -12 10 -24 7 -13 7 -25 1 -35 -8 -11 -13 -10 -28 11 -21 26 -32 66
-22 75 3 4 11 -2 19 -12 7 -10 15 -17 17 -15z m-195 -39 c0 -6 -4 -7 -10 -4
-5 3 -10 11 -10 16 0 6 5 7 10 4 6 -3 10 -11 10 -16z m620 -20 c0 -5 -4 -9
-10 -9 -5 0 -10 7 -10 16 0 8 5 12 10 9 6 -3 10 -10 10 -16z m-690 -7 c0 -13
-12 -22 -22 -16 -10 6 -1 24 13 24 5 0 9 -4 9 -8z m410 -1 c0 -6 -4 -12 -9
-15 -14 -9 -1 -46 21 -57 16 -9 19 -18 15 -45 -4 -25 -2 -34 9 -34 10 0 14 13
14 45 0 25 5 45 10 45 6 0 10 -16 10 -35 0 -26 3 -33 15 -29 12 5 15 -2 15
-30 0 -21 5 -36 12 -36 6 0 8 -3 4 -7 -4 -4 -16 3 -26 17 l-20 25 0 -45 c0
-26 -5 -51 -11 -57 -8 -8 -8 -17 0 -31 15 -27 14 -35 -5 -58 -14 -18 -15 -17
-9 18 5 31 2 40 -15 50 -14 9 -20 23 -20 50 0 21 -4 38 -10 38 -5 0 -10 5 -10
11 0 6 7 9 15 5 17 -6 21 19 5 29 -5 3 -10 15 -10 26 0 10 -4 19 -10 19 -5 0
-10 7 -10 15 0 8 -4 15 -9 15 -5 0 -7 8 -4 19 3 10 0 22 -6 25 -7 4 -11 -1
-11 -13 0 -12 -5 -21 -11 -21 -6 0 -9 12 -7 27 2 19 10 29 28 34 36 10 40 10
40 0z m187 -13 c-3 -8 -6 -5 -6 6 -1 11 2 17 5 13 3 -3 4 -12 1 -19z m-620
-40 c-3 -8 -6 -5 -6 6 -1 11 2 17 5 13 3 -3 4 -12 1 -19z m338 -25 c4 -21 9
-46 12 -57 3 -12 1 -17 -8 -14 -8 3 -15 22 -17 47 -2 23 -7 39 -12 36 -4 -3
-10 2 -14 10 -4 10 1 15 14 15 14 0 21 -9 25 -37z m395 17 c0 -5 -5 -10 -11
-10 -5 0 -7 5 -4 10 3 6 8 10 11 10 2 0 4 -4 4 -10z m-141 -52 c1 -5 -3 -8 -9
-8 -5 0 -10 12 -9 28 0 24 1 25 9 7 5 -11 9 -23 9 -27z m-292 -5 c-3 -10 -5
-4 -5 12 0 17 2 24 5 18 2 -7 2 -21 0 -30z m263 11 c0 -8 -4 -12 -10 -9 -5 3
-10 10 -10 16 0 5 5 9 10 9 6 0 10 -7 10 -16z m-185 -24 c-6 -9 -9 -9 -16 1
-10 17 0 34 13 21 6 -6 7 -16 3 -22z m337 -10 c-2 -16 -8 -30 -13 -30 -10 0
-12 53 -3 63 13 13 21 -3 16 -33z m-442 20 c0 -5 -4 -10 -10 -10 -5 0 -10 5
-10 10 0 6 5 10 10 10 6 0 10 -4 10 -10z m515 0 c3 -5 1 -10 -4 -10 -6 0 -11
5 -11 10 0 6 2 10 4 10 3 0 8 -4 11 -10z m-671 -15 c8 -23 -4 -44 -25 -42 -22
2 -22 0 -7 32 13 28 23 32 32 10z m-114 -20 c0 -16 -6 -25 -15 -25 -18 0 -18
5 -5 31 14 26 20 24 20 -6z m249 -15 c17 -33 18 -40 6 -40 -8 0 -15 5 -15 12
0 6 -7 19 -16 29 -9 10 -13 23 -9 28 9 16 11 15 34 -29z m427 -7 c3 -35 2 -37
-11 -19 -16 21 -19 48 -8 59 10 11 15 0 19 -40z m-1901 -59 c-7 -39 -19 -43
-35 -14 -13 24 -6 53 18 77 16 16 17 15 20 -6 2 -13 1 -39 -3 -57z m1175 72
c0 -3 -4 -8 -10 -11 -5 -3 -10 -1 -10 4 0 6 5 11 10 11 6 0 10 -2 10 -4z m220
-28 c0 -14 5 -18 16 -14 10 4 14 2 11 -6 -2 -7 -10 -12 -17 -10 -7 2 -9 -5 -5
-18 3 -11 2 -20 -3 -20 -6 0 -13 11 -16 25 -8 31 -21 32 -31 3 -7 -21 -7 -22
-12 -4 -3 11 1 24 9 30 8 6 17 19 21 29 9 23 27 13 27 -15z m190 -36 c0 -9
-11 -22 -25 -29 -23 -10 -25 -9 -25 17 0 19 6 30 18 33 23 5 32 -1 32 -21z
m56 12 c-3 -9 -6 -20 -6 -25 0 -5 -4 -9 -9 -9 -4 0 -6 11 -3 25 2 14 9 25 14
25 6 0 7 -7 4 -16z m181 -38 c-10 -19 -11 -20 -15 -3 -2 10 -1 26 3 35 5 14 8
14 15 2 5 -8 4 -22 -3 -34z m-2147 30 c0 -18 -15 -36 -31 -36 -21 0 -22 1 -13
24 5 14 44 24 44 12z m128 -52 c26 -17 28 -29 6 -38 -14 -5 -16 -17 -11 -74
11 -115 20 -156 42 -182 18 -22 24 -69 11 -83 -34 -36 -69 -132 -76 -205 -7
-83 -33 -152 -57 -152 -10 0 -13 6 -8 18 11 29 25 114 20 122 -2 4 0 22 6 41
6 19 12 54 14 79 1 25 5 59 9 75 33 160 21 355 -22 355 -16 0 -21 25 -14 63 3
10 51 -2 80 -19z m1996 -24 c3 -19 3 -29 0 -22 -3 6 -14 12 -25 12 -10 0 -19
2 -19 4 0 2 -3 11 -6 20 -4 11 -1 16 10 16 9 0 16 5 16 12 0 24 18 -7 24 -42z
m-162 18 c-7 -7 -12 -8 -12 -2 0 14 12 26 19 19 2 -3 -1 -11 -7 -17z m-288
-17 c-4 -9 -8 -53 -8 -98 -1 -45 -4 -84 -8 -88 -10 -11 -20 35 -10 48 14 18
-14 78 -33 71 -11 -5 -15 1 -15 19 0 16 7 28 19 32 10 3 21 15 24 25 4 14 10
18 22 14 11 -4 14 -12 9 -23z m36 -25 c0 -16 -21 -56 -30 -56 -14 0 -13 33 2
48 12 12 28 16 28 8z m610 -42 c0 -8 -5 -12 -10 -9 -6 4 -8 11 -5 16 9 14 15
11 15 -7z m-2233 -66 c-3 -7 -5 -2 -5 12 0 14 2 19 5 13 2 -7 2 -19 0 -25z
m2613 11 c0 -11 -4 -17 -10 -14 -5 3 -10 13 -10 21 0 8 5 14 10 14 6 0 10 -9
10 -21z m-510 -7 c0 -12 -39 -46 -45 -41 -6 7 24 49 36 49 5 0 9 -4 9 -8z m68
-43 l-5 -24 -10 25 c-12 28 -6 47 9 32 5 -5 8 -20 6 -33z m27 12 c3 -5 1 -12
-5 -16 -5 -3 -10 1 -10 9 0 18 6 21 15 7z m315 -13 c0 -16 -3 -19 -11 -11 -6
6 -8 16 -5 22 11 17 16 13 16 -11z m-2523 6 c-3 -3 -12 -4 -19 -1 -8 3 -5 6 6
6 11 1 17 -2 13 -5z m1810 -26 c-3 -8 -6 -5 -6 6 -1 11 2 17 5 13 3 -3 4 -12
1 -19z m838 -18 c-5 -17 -10 -19 -21 -9 -17 14 -18 36 -1 42 19 7 30 -9 22
-33z m-409 -7 c-11 -11 -17 4 -9 23 7 18 8 18 11 1 2 -10 1 -21 -2 -24z m-396
17 c0 -5 -4 -10 -10 -10 -5 0 -10 5 -10 10 0 6 5 10 10 10 6 0 10 -4 10 -10z
m176 -15 c-3 -9 -11 -13 -16 -10 -8 5 -7 11 1 21 14 18 24 11 15 -11z m-206
-31 c0 -7 -4 -15 -9 -18 -11 -7 -21 17 -21 47 1 22 1 22 15 3 8 -11 15 -25 15
-32z m110 42 c0 -3 -4 -8 -10 -11 -5 -3 -10 -1 -10 4 0 6 5 11 10 11 6 0 10
-2 10 -4z m844 -48 c4 -17 2 -28 -4 -28 -5 0 -10 6 -10 13 0 6 -3 23 -6 37 -5
17 -3 22 3 15 6 -5 13 -22 17 -37z m-684 -34 c0 -14 -3 -14 -15 -4 -12 10 -15
10 -15 -3 0 -9 5 -19 10 -22 15 -9 12 -25 -4 -25 -16 0 -30 61 -21 90 6 19 6
19 26 -1 10 -10 19 -26 19 -35z m450 41 c0 -8 -4 -15 -10 -15 -5 0 -10 7 -10
15 0 8 5 15 10 15 6 0 10 -7 10 -15z m70 -6 c0 -5 -4 -9 -10 -9 -5 0 -10 7
-10 16 0 8 5 12 10 9 6 -3 10 -10 10 -16z m-880 7 c0 -3 -4 -8 -10 -11 -5 -3
-10 -1 -10 4 0 6 5 11 10 11 6 0 10 -2 10 -4z m402 -38 c-13 -13 -26 8 -17 30
6 16 7 16 17 -1 7 -13 7 -22 0 -29z m-124 4 c-9 -23 -8 -34 5 -52 12 -18 13
-26 4 -43 -9 -15 -9 -21 1 -24 14 -6 16 -43 2 -43 -5 0 -10 9 -10 20 0 11 -4
20 -10 20 -6 0 -8 16 -5 36 3 28 1 35 -10 30 -8 -3 -17 3 -21 16 -5 17 0 27
22 45 16 13 30 23 31 23 1 0 -4 -13 -9 -28z m-135 1 c-7 -3 -13 -13 -13 -24 0
-10 -4 -19 -10 -19 -5 0 -10 5 -10 12 0 16 32 50 39 42 3 -4 0 -9 -6 -11z
m-83 -7 c0 -8 -4 -18 -10 -21 -5 -3 -10 3 -10 14 0 12 5 21 10 21 6 0 10 -6
10 -14z m542 -36 c-6 -15 -11 -19 -16 -12 -10 17 4 56 15 45 6 -6 6 -19 1 -33z
m-432 -24 c0 -5 -7 -3 -15 4 -8 7 -15 22 -15 34 1 20 2 20 15 -4 8 -14 14 -29
15 -34z m332 -1 c-4 -42 10 -81 27 -71 9 6 46 -23 38 -30 -4 -4 -13 -2 -21 5
-11 9 -15 9 -19 -1 -3 -8 -6 -6 -6 5 -1 10 -6 15 -11 12 -6 -4 -17 -2 -24 4
-7 6 -21 9 -30 5 -9 -4 -16 -1 -16 6 0 6 9 14 20 17 25 7 26 23 3 24 -11 0
-13 3 -5 6 6 2 12 11 12 19 0 15 20 43 31 44 4 0 4 -20 1 -45z m68 4 c0 -11
-4 -17 -10 -14 -5 3 -10 15 -10 26 0 11 5 17 10 14 6 -3 10 -15 10 -26z m-542
-24 c-12 -21 -24 -33 -26 -27 -4 12 37 76 44 69 3 -3 -5 -22 -18 -42z m512 36
c0 -6 -4 -13 -10 -16 -5 -3 -10 1 -10 9 0 9 5 16 10 16 6 0 10 -4 10 -9z m250
-16 c0 -8 -2 -15 -4 -15 -2 0 -6 7 -10 15 -3 8 -1 15 4 15 6 0 10 -7 10 -15z
m-359 -8 c-1 -12 -15 -9 -19 4 -3 6 1 10 8 8 6 -3 11 -8 11 -12z m-281 -1 c0
-3 -4 -8 -10 -11 -5 -3 -10 -1 -10 4 0 6 5 11 10 11 6 0 10 -2 10 -4z m220
-24 c3 -2 -1 -7 -8 -9 -10 -4 -10 -8 -1 -19 9 -11 14 -10 30 9 22 27 24 19 5
-19 -15 -27 -13 -49 3 -40 4 3 6 -5 5 -17 -1 -12 -3 -28 -3 -34 -1 -7 -11 -13
-23 -13 -20 -1 -21 -2 -6 -10 9 -6 14 -18 11 -29 -3 -14 0 -19 14 -18 12 1 19
-6 21 -20 2 -16 -2 -23 -13 -23 -9 0 -23 -7 -32 -15 -19 -20 -30 -11 -13 10 7
8 8 15 2 15 -5 0 -12 -6 -15 -13 -3 -8 -23 -14 -51 -15 -40 -2 -46 0 -46 18 0
11 -6 29 -12 40 -10 15 -10 22 0 32 6 6 12 20 12 30 0 11 12 31 26 46 24 25
26 26 19 5 -4 -14 -2 -23 5 -23 6 0 8 5 5 10 -3 6 -1 10 4 10 6 0 11 9 11 20
0 12 7 20 18 21 12 0 11 3 -7 10 -19 7 -21 12 -11 24 6 8 9 19 5 26 -5 8 -1 9
16 4 13 -4 26 -10 29 -13z m-143 -17 c-15 -16 -19 -13 -11 9 3 9 10 13 15 10
5 -3 3 -11 -4 -19z m463 -21 c0 -8 -4 -12 -10 -9 -5 3 -10 10 -10 16 0 5 5 9
10 9 6 0 10 -7 10 -16z m70 -13 c0 -5 -7 -11 -15 -15 -15 -5 -20 5 -8 17 9 10
23 9 23 -2z m-733 -33 c-3 -8 -6 -5 -6 6 -1 11 2 17 5 13 3 -3 4 -12 1 -19z
m630 7 c9 -25 -4 -29 -17 -6 -7 15 -7 21 0 21 6 0 13 -7 17 -15z m-625 -105
c4 0 8 -5 8 -10 0 -16 -37 11 -49 35 -5 11 -10 14 -10 8 -1 -15 -21 -18 -21
-3 0 5 10 22 23 36 l22 26 9 -46 c5 -25 13 -46 18 -46z m674 74 c-3 -9 -6 -18
-6 -20 0 -2 -8 -4 -17 -3 -11 0 -13 3 -5 6 6 2 12 11 12 19 0 8 5 14 11 14 6
0 8 -7 5 -16z m-90 -63 c-10 -15 -36 -2 -36 19 0 11 -4 22 -10 25 -5 3 -10 11
-10 18 0 6 14 -2 31 -20 17 -17 29 -36 25 -42z m-406 0 c-1 -12 -6 -10 -20 8
-11 12 -17 28 -13 34 8 12 33 -20 33 -42z m-260 18 c0 -5 -4 -9 -10 -9 -5 0
-10 7 -10 16 0 8 5 12 10 9 6 -3 10 -10 10 -16z m530 -29 c0 -5 -5 -10 -11
-10 -5 0 -7 5 -4 10 3 6 8 10 11 10 2 0 4 -4 4 -10z m-974 -41 c3 -6 -1 -18
-10 -27 -15 -15 -16 -14 -16 11 0 27 13 36 26 16z m1044 -19 c0 -16 -32 -20
-52 -6 -20 14 -19 15 8 18 32 4 44 1 44 -12z m-320 -19 c0 -6 -5 -13 -10 -16
-6 -4 -8 -10 -5 -15 3 -5 1 -11 -5 -15 -6 -4 -10 6 -10 24 0 21 5 31 15 31 8
0 15 -4 15 -9z m175 -11 c-3 -5 -13 -10 -21 -10 -8 0 -12 5 -9 10 3 6 13 10
21 10 8 0 12 -4 9 -10z m160 0 c3 -5 -1 -10 -9 -10 -9 0 -16 5 -16 10 0 6 4
10 9 10 6 0 13 -4 16 -10z m-425 -21 c0 -5 -4 -9 -10 -9 -5 0 -10 7 -10 16 0
8 5 12 10 9 6 -3 10 -10 10 -16z m151 -41 c25 1 28 -2 19 -17 -11 -21 -37 -34
-51 -25 -5 3 -9 0 -9 -5 0 -6 -7 -11 -15 -11 -16 0 -20 21 -7 34 4 4 8 12 8
17 3 19 4 20 15 13 7 -4 25 -7 40 -6z m-99 -80 l-23 -23 3 42 c3 42 3 42 23
23 19 -20 19 -20 -3 -42z m118 18 c0 -3 -4 -8 -10 -11 -5 -3 -10 -1 -10 4 0 6
5 11 10 11 6 0 10 -2 10 -4z m881 -12 c-19 -8 -36 -12 -39 -9 -6 6 37 24 58
24 8 0 0 -6 -19 -15z m-2915 -54 c-2 -3 -6 -14 -11 -25 l-7 -20 -8 20 c-10 25
8 64 20 44 5 -7 7 -16 6 -19z m2334 -40 c0 -5 -5 -10 -11 -10 -5 0 -7 5 -4 10
3 6 8 10 11 10 2 0 4 -4 4 -10z m40 -70 c0 -5 -4 -10 -10 -10 -5 0 -10 5 -10
10 0 6 5 10 10 10 6 0 10 -4 10 -10z m3408 -94 c0 -6 3 -21 6 -33 3 -14 0 -23
-7 -23 -7 0 -4 -7 6 -14 12 -9 14 -16 8 -21 -6 -3 -11 -16 -11 -27 0 -20 -1
-21 -20 -3 -11 10 -20 13 -20 8 0 -6 -11 -10 -24 -10 -16 0 -26 7 -30 21 -9
32 -7 58 3 52 5 -3 12 1 15 10 3 8 2 12 -4 9 -6 -4 -6 2 0 17 8 17 20 23 44
24 18 0 33 -4 34 -10z m-3386 -128 c-9 -9 -15 -9 -24 0 -9 9 -7 12 12 12 19 0
21 -3 12 -12z m-85 -22 c0 -8 -6 -12 -14 -9 -7 3 -13 9 -13 14 0 5 6 9 13 9 8
0 14 -6 14 -14z m106 -3 c-7 -2 -21 -2 -30 0 -10 3 -4 5 12 5 17 0 24 -2 18
-5z m1157 -112 c-24 -14 -97 -24 -85 -13 9 9 40 17 85 20 13 1 13 0 0 -7z
m1284 -89 c3 -5 -8 -9 -24 -9 -16 0 -27 4 -24 9 3 4 14 8 24 8 10 0 21 -4 24
-8z m71 -12 c3 -6 -1 -7 -9 -4 -18 7 -21 14 -7 14 6 0 13 -4 16 -10z m-3100
-10 c-3 -5 -10 -10 -16 -10 -5 0 -9 5 -9 10 0 6 7 10 16 10 8 0 12 -4 9 -10z
m-128 -16 c-3 -3 -12 -4 -19 -1 -8 3 -5 6 6 6 11 1 17 -2 13 -5z m-84 -76 l-6
-53 32 28 c18 15 38 27 44 27 7 0 -1 -12 -18 -26 -25 -21 -27 -27 -15 -35 12
-9 11 -10 -4 -5 -10 4 -25 1 -32 -5 -12 -10 -13 -9 -8 5 4 11 1 16 -10 16 -9
0 -16 5 -16 11 0 6 -12 20 -26 32 -25 19 -26 21 -8 28 18 7 18 8 -1 10 -12 1
-6 5 15 9 61 13 60 14 53 -42z m124 36 c-3 -3 -12 -4 -19 -1 -8 3 -5 6 6 6 11
1 17 -2 13 -5z m553 -4 c0 -5 -2 -10 -4 -10 -3 0 -8 5 -11 10 -3 6 -1 10 4 10
6 0 11 -4 11 -10z m-80 -14 c0 -2 -6 -9 -14 -15 -11 -9 -16 -9 -22 0 -4 8 -3
9 4 5 7 -4 12 -2 12 3 0 6 5 11 10 11 6 0 10 -2 10 -4z m490 -16 c0 -5 -2 -10
-4 -10 -3 0 -8 5 -11 10 -3 6 -1 10 4 10 6 0 11 -4 11 -10z m-553 -6 c-3 -3
-12 -4 -19 -1 -8 3 -5 6 6 6 11 1 17 -2 13 -5z m468 -44 c-11 -17 -23 -1 -18
21 5 19 7 19 15 5 5 -9 6 -21 3 -26z m64 26 c10 -12 8 -13 -8 -9 -12 3 -21 9
-21 14 0 14 16 11 29 -5z m-641 -25 c-16 -25 -43 -38 -34 -16 3 8 0 15 -7 16
-7 0 2 7 18 14 36 16 40 13 23 -14z m54 4 c6 -29 2 -31 -18 -10 -9 8 -12 19
-9 25 11 17 22 11 27 -15z m345 -10 c0 -17 -13 -20 -21 -6 -4 5 0 12 6 14 7 3
13 6 14 6 0 1 1 -6 1 -14z m143 -5 c0 -5 -2 -10 -4 -10 -3 0 -8 5 -11 10 -3 6
-1 10 4 10 6 0 11 -4 11 -10z m-625 -18 c0 -7 -3 -12 -7 -12 -5 0 -20 0 -34 0
-14 0 -23 4 -20 9 3 5 16 7 28 3 15 -4 19 -2 13 8 -5 8 -3 11 6 8 8 -3 14 -10
14 -16z m105 14 c0 -3 -4 -8 -10 -11 -5 -3 -10 -1 -10 4 0 6 5 11 10 11 6 0
10 -2 10 -4z m336 -23 c-10 -10 -19 5 -10 18 6 11 8 11 12 0 2 -7 1 -15 -2
-18z m138 1 c4 -10 1 -14 -6 -12 -15 5 -23 28 -10 28 5 0 13 -7 16 -16z m151
6 c-7 -12 -45 -14 -45 -2 0 4 11 9 26 10 14 1 23 -2 19 -8z m-787 -20 c13 0
10 -6 -10 -25 -16 -14 -33 -22 -42 -19 -12 4 -16 0 -16 -16 0 -11 -4 -18 -10
-15 -14 9 -13 15 10 53 14 23 26 32 36 28 9 -3 23 -6 32 -6z m132 -10 c0 -5
-2 -10 -4 -10 -3 0 -8 5 -11 10 -3 6 -1 10 4 10 6 0 11 -4 11 -10z m350 3 c0
-5 -5 -15 -10 -23 -8 -12 -10 -11 -10 8 0 12 5 22 10 22 6 0 10 -3 10 -7z
m126 -9 c-4 -10 0 -18 13 -21 12 -3 17 -11 14 -19 -7 -18 -23 -18 -23 0 0 8
-7 16 -15 20 -16 6 -10 36 7 36 6 0 7 -7 4 -16z m80 -11 c-10 -10 -19 5 -10
18 6 11 8 11 12 0 2 -7 1 -15 -2 -18z m-969 1 c-3 -3 -12 -4 -19 -1 -8 3 -5 6
6 6 11 1 17 -2 13 -5z m184 -21 c-4 -16 -4 -41 2 -56 5 -15 7 -31 3 -34 -3 -4
-6 1 -6 10 0 8 -4 17 -9 19 -20 7 -17 88 3 88 11 0 12 -7 7 -27z m264 17 c3
-5 -1 -10 -10 -10 -9 0 -13 5 -10 10 3 6 8 10 10 10 2 0 7 -4 10 -10z m345 -4
c0 -2 -7 -7 -16 -10 -8 -3 -12 -2 -9 4 6 10 25 14 25 6z m255 -6 c3 -5 1 -10
-4 -10 -6 0 -11 5 -11 10 0 6 2 10 4 10 3 0 8 -4 11 -10z m-370 -10 c8 -13 -5
-13 -25 0 -13 8 -13 10 2 10 9 0 20 -4 23 -10z m411 -17 c-10 -10 -19 5 -10
18 6 11 8 11 12 0 2 -7 1 -15 -2 -18z m-944 -18 c3 -14 2 -25 -3 -25 -12 0
-27 33 -22 48 7 18 20 6 25 -23z m658 25 c0 -5 -5 -10 -11 -10 -5 0 -7 5 -4
10 3 6 8 10 11 10 2 0 4 -4 4 -10z m-64 -9 c-4 -5 2 -7 13 -4 14 4 20 -2 25
-27 5 -26 9 -30 19 -21 8 6 17 8 20 4 15 -14 5 -21 -25 -20 -26 2 -34 7 -36
25 -3 22 -4 23 -17 5 -9 -10 -14 -13 -15 -5 0 17 -20 15 -20 -3 0 -17 -16 -20
-25 -6 -3 6 1 13 8 18 7 4 16 16 20 26 3 9 14 17 22 17 9 0 14 -4 11 -9z
m-639 -45 c-1 -34 -5 -42 -14 -34 -10 8 -12 46 -4 76 1 1 5 2 10 2 5 0 8 -20
8 -44z m850 28 c-3 -3 -12 -4 -19 -1 -8 3 -5 6 6 6 11 1 17 -2 13 -5z m-893
-46 c-2 -9 0 -19 6 -23 5 -3 15 -15 20 -25 8 -16 8 -18 -5 -14 -8 4 -15 11
-15 17 0 6 -8 3 -17 -7 -13 -13 -15 -20 -5 -23 6 -3 12 -9 12 -14 0 -4 -6 -6
-14 -3 -19 7 -26 -8 -29 -58 -2 -24 -6 -49 -11 -56 -4 -7 -1 -12 9 -12 27 0
29 -29 4 -51 l-24 -20 23 6 c16 5 22 2 22 -9 0 -10 -6 -13 -15 -10 -22 9 -18
-2 9 -29 19 -19 26 -21 30 -11 7 18 36 18 36 0 0 -9 7 -12 21 -9 13 4 18 11
14 22 -3 8 -3 12 1 9 4 -4 16 -3 26 3 16 9 24 7 36 -5 10 -10 12 -16 5 -16 -7
0 -15 5 -18 10 -4 6 -12 5 -21 -4 -19 -19 -18 -32 1 -16 18 15 28 8 32 -22 3
-17 1 -19 -11 -8 -13 10 -16 7 -22 -14 -4 -16 -15 -28 -29 -32 -13 -3 -26 -12
-29 -20 -3 -8 -17 -19 -31 -24 -29 -11 -78 -3 -69 11 3 5 -2 9 -11 9 -8 0 -18
-7 -21 -15 -8 -21 -70 -38 -114 -31 -27 4 -41 2 -50 -9 -17 -20 -70 -20 -70 0
0 13 4 14 20 5 16 -9 18 -8 14 5 -5 11 -2 14 11 9 14 -6 16 -3 10 16 -6 18 -4
22 9 17 22 -9 29 8 10 24 -14 12 -14 14 5 21 30 11 26 25 -9 33 -33 7 -41 25
-11 25 11 0 23 5 27 12 5 8 0 9 -15 5 -32 -8 -51 2 -51 25 0 12 -4 17 -12 12
-7 -4 -8 -3 -4 4 11 18 44 14 66 -8 14 -14 20 -16 20 -6 0 7 -16 21 -35 30
-30 14 -33 19 -23 35 9 14 7 23 -6 42 l-17 24 7 -27 c3 -16 2 -28 -3 -28 -14
0 -33 38 -27 57 4 12 -3 8 -18 -9 -27 -32 -38 -35 -38 -10 0 18 43 50 119 89
24 12 50 28 57 34 11 9 19 8 34 -6 19 -17 20 -17 20 -1 0 9 5 14 10 11 6 -3
10 -17 10 -31 0 -13 5 -24 10 -24 6 0 10 12 10 26 0 20 3 24 13 17 6 -6 24
-13 40 -17 23 -5 27 -3 27 14 0 11 5 20 11 20 6 0 8 9 4 23 -5 17 -4 18 4 7
15 -22 24 -5 10 18 -7 11 -9 28 -5 38 6 16 8 16 16 4 5 -8 7 -22 4 -32z m186
21 c0 -11 -4 -17 -10 -14 -5 3 -10 13 -10 21 0 8 5 14 10 14 6 0 10 -9 10 -21z
m366 -11 c-11 -15 -16 -18 -16 -7 0 16 21 42 28 34 2 -2 -3 -14 -12 -27z m251
26 c-3 -3 -12 -4 -19 -1 -8 3 -5 6 6 6 11 1 17 -2 13 -5z m-202 -24 c6 -17 23
-25 48 -21 4 0 7 -6 7 -14 0 -8 -4 -15 -10 -15 -5 0 -10 4 -10 8 0 4 -12 8
-27 7 -23 0 -28 5 -30 28 -2 31 13 36 22 7z m364 13 c0 -5 -4 -17 -9 -28 -8
-17 -8 -16 -7 8 1 15 5 27 9 27 4 0 8 -3 7 -7z m97 -11 c-2 -4 -1 -14 4 -22 6
-9 3 -18 -8 -27 -16 -12 -16 -14 1 -24 21 -12 22 -29 2 -29 -9 0 -15 -9 -15
-25 0 -14 -2 -25 -4 -25 -2 0 -12 -3 -20 -6 -12 -5 -15 -2 -10 12 4 11 13 26
21 36 12 13 12 20 2 36 -7 12 -19 18 -27 14 -10 -3 -13 -1 -8 7 5 7 16 9 28 5
18 -5 20 -3 15 18 -4 14 -4 28 0 32 9 9 25 8 19 -2z m-1131 -21 c3 -5 1 -12
-5 -16 -5 -3 -10 1 -10 9 0 18 6 21 15 7z m915 -1 c0 -5 -5 -10 -11 -10 -5 0
-7 5 -4 10 3 6 8 10 11 10 2 0 4 -4 4 -10z m-760 -4 c0 -11 -19 -15 -25 -6 -3
5 1 10 9 10 9 0 16 -2 16 -4z m660 -18 c0 -11 -22 -10 -39 1 -10 7 -7 9 12 8
15 -1 27 -5 27 -9z m3031 -5 c13 -15 12 -15 -8 -4 -24 12 -29 21 -14 21 5 0
15 -7 22 -17z m-2791 -10 c0 -5 -8 -17 -17 -28 -14 -18 -15 -18 -9 -2 3 10 6
23 6 28 0 5 5 9 10 9 6 0 10 -3 10 -7z m-610 -13 c0 -5 -4 -10 -10 -10 -5 0
-10 5 -10 10 0 6 5 10 10 10 6 0 10 -4 10 -10z m70 0 c0 -5 -4 -10 -10 -10 -5
0 -10 5 -10 10 0 6 5 10 10 10 6 0 10 -4 10 -10z m3385 0 c8 -13 -5 -13 -25 0
-13 8 -13 10 2 10 9 0 20 -4 23 -10z m-3544 -18 c-7 -2 -18 1 -23 6 -8 8 -4 9
13 5 13 -4 18 -8 10 -11z m3579 -13 c0 -6 -4 -7 -10 -4 -5 3 -10 11 -10 16 0
6 5 7 10 4 6 -3 10 -11 10 -16z m-3540 1 c0 -5 -2 -10 -4 -10 -3 0 -8 5 -11
10 -3 6 -1 10 4 10 6 0 11 -4 11 -10z m74 -5 c-7 -17 -20 -20 -29 -6 -3 5 3
12 12 14 10 3 19 5 20 6 1 0 0 -6 -3 -14z m-160 -16 c-1 -8 -4 -27 -8 -44 -3
-18 -1 -32 7 -37 8 -5 7 -8 -5 -8 -9 0 -19 -6 -22 -12 -3 -9 -11 -6 -24 10
-30 33 -35 28 -30 -28 3 -27 4 -50 3 -50 -2 0 -12 17 -23 39 -16 29 -18 41 -9
50 9 9 9 14 0 19 -8 5 -6 14 8 32 l20 25 -6 -30 c-6 -29 -6 -29 9 -11 9 11 14
28 10 38 -3 10 -1 18 5 18 6 0 11 -4 11 -10 0 -5 7 -10 15 -10 8 0 14 3 14 8
-3 17 2 23 14 19 6 -2 11 -10 11 -18z m3687 -26 c10 -12 5 -11 -18 6 -18 12
-33 24 -33 27 0 9 37 -15 51 -33z m-3566 4 c7 -6 2 -8 -15 -3 -14 3 -31 6 -37
6 -7 0 -13 5 -13 10 0 12 50 2 65 -13z m75 9 c0 -8 -7 -16 -15 -20 -15 -5 -21
14 -8 27 11 12 23 8 23 -7z m-325 -16 c3 -5 1 -10 -4 -10 -6 0 -11 5 -11 10 0
6 2 10 4 10 3 0 8 -4 11 -10z m170 -12 c-2 -26 -28 -31 -33 -6 -2 9 5 18 15
21 10 3 18 5 19 6 0 0 0 -9 -1 -21z m290 -16 c-6 -6 -35 18 -35 29 0 5 9 1 20
-8 11 -9 17 -19 15 -21z m-210 -57 c-3 -62 -37 -29 -50 49 l-6 38 28 -29 c19
-20 28 -39 28 -58z m39 54 c-8 -13 -24 -1 -24 18 0 13 3 13 15 3 8 -7 12 -16
9 -21z m116 27 c0 -11 -19 -15 -25 -6 -3 5 1 10 9 10 9 0 16 -2 16 -4z m3475
-54 c-7 -7 -45 29 -45 41 0 6 11 0 25 -13 14 -13 23 -26 20 -28z m-3887 16
c-1 -13 -5 -28 -10 -35 -5 -6 -5 -14 1 -17 6 -4 7 -14 4 -23 -4 -11 -3 -14 5
-9 21 13 13 -10 -10 -30 -17 -14 -19 -15 -10 -2 11 14 11 21 -3 42 -16 24 -16
28 -1 61 20 41 25 44 24 13z m338 -3 c-15 -14 -31 -25 -37 -25 -12 0 -11 -14
2 -27 6 -6 9 -17 6 -25 -4 -9 -8 -5 -12 10 -4 12 -11 22 -16 22 -17 0 -9 19
11 25 11 3 20 12 20 20 0 12 15 20 44 24 5 0 -3 -10 -18 -24z m109 5 c3 -5 -1
-10 -9 -10 -9 0 -16 5 -16 10 0 6 4 10 9 10 6 0 13 -4 16 -10z m-973 -62 c-6
-6 -8 -1 -7 14 3 32 7 36 12 14 3 -10 1 -22 -5 -28z m703 32 c-3 -5 -10 -10
-16 -10 -5 0 -9 5 -9 10 0 6 7 10 16 10 8 0 12 -4 9 -10z m3785 -55 c0 -5 -11
2 -25 15 -14 13 -25 27 -25 31 0 5 11 -2 25 -15 14 -13 25 -27 25 -31z m-4400
35 c0 -5 -2 -10 -4 -10 -3 0 -8 5 -11 10 -3 6 -1 10 4 10 6 0 11 -4 11 -10z
m557 -37 c16 -12 16 -13 0 -13 -9 0 -24 15 -32 33 -14 29 -14 30 0 12 8 -11
23 -26 32 -32z m63 26 c0 -10 -7 -11 -37 -3 -34 9 -28 21 7 16 17 -2 30 -8 30
-13z m730 -4 c-7 -8 -17 -15 -23 -15 -5 0 -2 9 8 20 21 23 35 19 15 -5z
m-1465 5 c9 -14 -6 -81 -16 -74 -5 3 -9 -7 -10 -23 -1 -35 -5 -60 -15 -81 -4
-9 -8 -24 -8 -32 -1 -9 -9 -14 -21 -13 -11 1 -14 0 -8 -3 9 -4 10 -11 3 -25
-13 -23 -36 -36 -89 -48 -34 -7 -41 -6 -41 6 0 10 6 13 16 9 20 -8 48 20 37
36 -12 20 -14 46 -3 53 6 4 7 -1 3 -12 -6 -17 -6 -17 14 0 11 10 20 31 21 49
1 29 22 68 22 40 0 -7 5 -12 10 -12 6 0 10 21 10 48 0 28 4 42 8 34 6 -9 14
-2 28 23 19 36 28 42 39 25z m480 -10 c3 -6 -1 -7 -9 -4 -18 7 -21 14 -7 14 6
0 13 -4 16 -10z m290 0 c3 -5 1 -10 -4 -10 -6 0 -11 5 -11 10 0 6 2 10 4 10 3
0 8 -4 11 -10z m-660 -20 c3 -5 2 -10 -4 -10 -5 0 -13 5 -16 10 -3 6 -2 10 4
10 5 0 13 -4 16 -10z m635 -9 c0 -5 -7 -11 -15 -15 -15 -5 -20 5 -8 17 9 10
23 9 23 -2z m-264 -38 c-10 -10 -19 5 -10 18 6 11 8 11 12 0 2 -7 1 -15 -2
-18z m4074 12 c20 -24 6 -28 -15 -5 -10 11 -13 20 -8 20 6 0 16 -7 23 -15z
m-3909 -29 c-4 -6 -11 -18 -14 -26 -3 -11 -7 -9 -14 10 -7 16 -6 28 1 36 14
16 40 -3 27 -20z m-1972 -14 c0 -9 4 -36 9 -59 8 -39 8 -43 -10 -43 -17 0 -19
5 -13 30 5 25 3 31 -15 38 -20 7 -20 9 -6 21 9 8 16 20 16 28 0 8 4 12 9 8 6
-3 10 -13 10 -23z m5952 -35 c44 -56 44 -64 1 -20 -23 23 -42 45 -42 48 0 14
17 2 41 -28z m-5901 -6 c0 -42 -16 -47 -17 -5 -1 19 3 34 8 34 5 0 9 -13 9
-29z m-174 -2 c3 -6 17 -9 30 -6 21 4 23 1 18 -22 -8 -31 -34 -64 -34 -42 0 8
-11 29 -26 48 -19 24 -21 33 -10 33 8 0 18 -5 22 -11z m2004 -70 c0 -6 -4 -7
-10 -4 -5 3 -10 11 -10 16 0 6 5 7 10 4 6 -3 10 -11 10 -16z m-1865 -51 c-5
-29 -7 -68 -7 -86 2 -23 -2 -32 -10 -29 -7 2 -12 9 -11 15 1 6 3 39 4 74 3 69
5 78 21 78 7 0 8 -17 3 -52z m1145 13 c0 -6 -4 -13 -10 -16 -5 -3 -10 1 -10 9
0 9 5 16 10 16 6 0 10 -4 10 -9z m4920 -54 c0 -7 -11 2 -25 18 -32 39 -32 58
0 22 14 -15 25 -33 25 -40z m-6135 -90 c33 -26 62 -55 64 -64 1 -9 12 -30 22
-47 l20 -31 -7 43 c-7 45 -3 48 44 36 17 -5 22 -14 22 -40 0 -18 5 -36 10 -39
6 -4 10 5 10 19 0 30 7 32 32 9 10 -9 37 -18 61 -21 23 -2 48 -8 55 -15 10 -8
16 -7 22 3 6 10 0 18 -21 28 -16 8 -27 17 -25 20 3 2 24 -5 48 -16 38 -19 43
-20 57 -6 20 19 74 53 121 75 l36 16 0 -31 c-1 -30 -30 -66 -55 -66 -6 0 -11
-5 -11 -11 0 -6 -43 -53 -96 -106 -73 -72 -103 -111 -126 -159 -18 -38 -44
-75 -64 -90 -18 -14 -31 -31 -28 -38 3 -7 -8 -21 -23 -30 l-28 -17 24 20 c13
12 18 21 13 21 -6 0 -14 -5 -17 -11 -4 -5 -12 -8 -18 -6 -6 2 -16 0 -22 -5
-27 -22 -180 -118 -188 -118 -15 0 0 68 22 98 17 25 18 34 9 70 -14 56 -28 53
-28 -5 0 -45 -9 -69 -72 -194 -10 -20 -18 -43 -18 -51 0 -8 -12 -25 -26 -39
l-25 -24 4 155 c3 142 3 151 -9 105 -7 -27 -11 -67 -7 -87 3 -21 2 -45 -1 -55
-7 -17 -8 -17 -18 1 -16 28 -19 86 -5 86 8 0 7 3 -1 9 -11 7 -11 30 3 137 15
120 29 173 42 160 3 -3 0 -26 -7 -51 -11 -38 -10 -53 0 -85 13 -38 30 -54 30
-27 1 6 12 26 25 42 24 28 25 29 25 8 0 -13 5 -23 11 -23 7 0 9 10 5 26 -4 15
-10 39 -13 55 -4 22 -11 29 -29 29 -13 0 -24 4 -24 9 0 5 -6 16 -13 23 -20 20
3 139 57 293 25 72 46 132 46 135 1 3 7 -13 14 -35 8 -29 27 -52 71 -88z
m1544 68 c21 -4 30 -2 26 5 -3 5 1 10 9 10 9 0 16 -7 16 -16 0 -8 4 -13 9 -9
5 3 12 1 16 -4 3 -5 -2 -14 -12 -19 -12 -7 -20 -6 -28 5 -10 14 -15 14 -39 -2
-24 -16 -29 -16 -37 -4 -11 18 -12 52 -1 45 5 -3 23 -8 41 -11z m140 -3 c6
-12 4 -24 -9 -40 l-19 -23 4 38 c4 52 8 56 24 25z m-771 -12 c7 0 20 -7 28
-15 17 -16 9 -39 -23 -66 -24 -20 -58 -22 -42 -2 6 7 15 11 19 8 17 -11 22 18
6 33 -10 10 -16 12 -14 6 4 -16 -43 -56 -59 -50 -7 3 -15 1 -18 -4 -4 -6 -11
-10 -17 -10 -7 0 -6 5 1 14 7 8 8 17 3 19 -4 3 -13 -3 -20 -13 -10 -16 -8 -20
8 -25 11 -3 24 -4 30 0 6 3 7 -1 4 -9 -3 -9 -1 -16 5 -16 6 0 11 7 11 15 0 8
5 15 10 15 15 0 12 -17 -6 -45 -9 -14 -14 -32 -10 -40 3 -8 0 -14 -6 -12 -7 1
-12 -6 -13 -16 0 -10 -7 -22 -15 -27 -8 -5 -12 -10 -8 -10 4 0 -8 -16 -27 -35
-19 -19 -35 -40 -35 -47 0 -9 3 -9 10 2 8 12 10 10 10 -8 0 -13 7 -30 15 -38
19 -20 19 -24 -5 -54 -16 -20 -20 -22 -20 -7 0 20 -16 23 -23 5 -3 -10 -7 -10
-17 -1 -10 9 -16 8 -27 -3 -8 -8 -23 -14 -34 -14 -11 0 -19 -7 -19 -16 0 -8
-4 -13 -8 -10 -5 3 -23 -4 -41 -15 -17 -10 -49 -22 -69 -25 -42 -7 -55 -14
-26 -14 18 -1 18 -1 1 -11 -9 -5 -22 -7 -27 -4 -6 3 -10 -1 -10 -10 0 -11 -5
-15 -14 -12 -8 3 -17 -1 -20 -10 -4 -8 -12 -13 -20 -10 -8 3 -22 -3 -31 -13
-9 -10 -32 -21 -51 -24 -19 -4 -34 -12 -34 -18 0 -6 -3 -9 -6 -5 -8 8 -33 -16
-27 -25 2 -4 -2 -5 -10 -2 -8 3 -18 1 -22 -5 -3 -6 -15 -11 -25 -11 -11 0 -30
-11 -44 -25 -14 -14 -34 -25 -44 -25 -11 0 -22 -9 -25 -20 -3 -11 -14 -20 -24
-20 -11 0 -34 -16 -53 -35 l-34 -35 25 0 c14 0 29 3 33 7 22 22 48 -9 45 -54
-1 -14 43 -23 61 -13 10 6 23 10 29 10 19 0 71 -52 71 -71 0 -10 3 -18 8 -17
14 3 42 -14 42 -27 0 -27 40 -40 138 -44 6 -1 12 -9 13 -18 0 -11 3 -13 6 -5
2 6 9 10 14 6 8 -5 36 -62 40 -82 5 -28 24 -41 68 -47 61 -8 70 -18 78 -84 7
-59 7 -59 65 -69 30 -5 46 -14 53 -29 5 -12 20 -27 32 -34 13 -7 27 -26 31
-42 6 -22 20 -35 62 -55 48 -24 56 -32 66 -67 16 -61 24 -75 46 -75 23 0 128
-88 128 -107 0 -8 9 -26 19 -41 11 -15 22 -38 26 -50 6 -21 5 -22 -12 -14 -10
6 -54 43 -98 82 -44 40 -109 98 -144 129 -35 31 -110 97 -166 146 -128 114
-271 236 -310 267 -16 13 -43 38 -58 56 -16 17 -37 32 -47 32 -10 0 -25 6 -33
14 -18 18 -87 17 -80 -1 3 -7 1 -13 -5 -13 -14 0 -23 28 -11 35 5 4 18 3 29 0
39 -12 19 4 -67 58 -102 62 -172 89 -214 80 -52 -10 -46 -26 7 -19 43 7 47 6
29 -6 -11 -8 -39 -20 -62 -28 -23 -7 -44 -18 -47 -25 -2 -7 -14 -15 -25 -18
-12 -3 -19 -1 -15 4 3 5 0 9 -5 9 -6 0 -11 -8 -11 -17 0 -13 -3 -14 -8 -6 -6
9 -16 6 -36 -12 -16 -14 -35 -25 -43 -25 -8 0 -12 -4 -9 -9 3 -5 -6 -14 -22
-20 -15 -5 -51 -24 -80 -41 -29 -16 -59 -30 -67 -30 -8 0 -12 -6 -9 -14 3 -8
-3 -16 -15 -19 -12 -3 -19 -1 -15 4 7 13 3 12 -45 -12 -24 -11 -45 -18 -48
-15 -3 3 -18 -1 -32 -10 -14 -8 -55 -25 -91 -38 -36 -13 -64 -29 -63 -34 2 -6
-4 -9 -12 -6 -9 4 -15 0 -15 -10 0 -14 -17 -20 -57 -19 -6 0 -9 -5 -7 -12 3
-7 -8 -17 -28 -24 -24 -9 -29 -14 -19 -20 16 -10 16 -10 -79 -60 -77 -40 -148
-87 -173 -116 -10 -11 -15 -13 -11 -5 6 11 2 10 -13 -2 -11 -10 -24 -18 -29
-18 -5 0 -15 -9 -22 -20 -7 -12 -17 -18 -22 -15 -6 3 -10 1 -10 -5 0 -7 -7
-10 -15 -6 -9 3 -15 0 -15 -9 0 -8 -7 -15 -15 -15 -8 0 -15 -6 -15 -13 0 -8
-16 -22 -35 -33 -19 -10 -35 -22 -35 -26 0 -5 -6 -8 -14 -8 -7 0 -33 -17 -57
-38 -24 -20 -66 -55 -94 -77 -113 -91 -287 -266 -317 -319 -5 -8 -22 -17 -38
-20 -17 -3 -43 -9 -60 -12 -27 -5 -29 -8 -23 -37 3 -18 11 -35 17 -40 7 -5 5
-12 -6 -21 -27 -20 -110 -100 -138 -132 -14 -16 -17 -22 -7 -15 9 8 20 12 23
9 8 -9 -15 -58 -27 -58 -7 0 -10 -3 -6 -6 3 -4 0 -13 -8 -21 -8 -8 -15 -23
-15 -33 0 -11 -11 -30 -24 -43 -40 -40 -55 -80 -61 -163 -7 -96 -10 -108 -46
-161 -16 -23 -29 -46 -29 -52 0 -6 -8 -11 -17 -12 -13 0 -14 -2 -4 -6 7 -3 9
-8 4 -12 -9 -6 -68 -139 -68 -153 0 -3 -3 -10 -7 -14 -5 -4 -8 -14 -8 -23 0
-20 -53 -81 -69 -81 -18 0 -3 40 85 237 19 42 18 115 -3 158 -9 19 -20 35 -23
35 -19 0 -90 -122 -90 -155 0 -9 -6 -18 -14 -21 -8 -3 -12 -12 -10 -19 3 -7
-51 -127 -119 -266 -157 -319 -217 -446 -217 -459 0 -13 -44 -154 -72 -230
-26 -71 -84 -318 -93 -395 -4 -33 -9 -64 -12 -69 -3 -4 -5 -52 -4 -106 2 -88
-1 -104 -23 -149 -39 -77 -50 -76 -42 5 4 38 14 95 22 128 9 32 16 90 17 127
1 38 5 69 10 69 4 0 7 14 7 30 0 17 4 30 8 30 4 0 8 8 9 18 5 60 16 108 51
220 23 70 56 177 75 237 19 61 54 160 77 220 22 61 56 153 75 205 76 217 137
327 363 657 39 57 50 81 55 123 1 8 -4 14 -12 12 -21 -4 -6 52 26 101 35 51
71 59 64 15 -3 -18 18 -6 24 13 5 14 10 18 17 11 6 -6 4 -20 -6 -40 -9 -17
-16 -34 -16 -37 0 -12 59 40 59 53 1 7 8 15 16 18 8 4 12 10 9 15 -3 5 0 9 5
9 6 0 11 6 11 14 0 19 30 73 58 104 12 14 22 29 22 33 0 5 12 15 28 23 l27 15
-31 1 c-56 0 -94 -11 -94 -29 0 -10 -7 -26 -15 -37 -14 -18 -14 -18 -15 -1 0
33 32 87 66 114 19 14 34 30 34 35 0 6 7 25 16 43 10 23 24 35 45 39 18 3 34
15 41 31 6 14 15 25 20 25 5 0 6 4 3 10 -3 5 6 12 20 16 13 3 23 10 20 15 -3
4 26 41 65 81 38 40 70 79 70 86 0 6 4 12 9 12 5 0 20 14 32 32 13 17 17 28 9
23 -9 -5 -11 -4 -6 3 4 7 13 12 19 12 7 0 18 13 24 29 14 37 130 124 202 151
30 12 117 53 195 93 78 39 147 72 154 73 30 5 44 15 39 28 -4 10 0 13 14 11
15 -3 19 0 16 10 -8 19 22 43 32 26 6 -9 11 -8 21 4 11 13 10 14 -4 9 -12 -5
-15 -2 -10 10 3 9 9 16 14 16 4 0 20 11 35 24 35 31 101 65 136 71 15 3 40 12
55 20 38 20 54 19 53 -2 0 -11 -3 -13 -6 -5 -2 6 -9 12 -14 12 -6 0 -7 -4 -4
-10 3 -6 -4 -10 -17 -10 -18 0 -20 -2 -8 -10 8 -5 12 -10 8 -11 -5 -1 -11 -2
-15 -3 -30 -6 -161 -77 -166 -90 -4 -9 -2 -16 3 -16 6 0 10 4 10 10 0 5 18 15
40 21 22 7 40 15 40 19 0 4 6 7 13 7 7 0 38 12 69 26 31 15 65 29 75 30 10 2
35 12 55 21 21 9 40 16 43 15 4 0 16 6 29 14 12 9 36 17 52 20 28 5 66 19 149
58 35 16 36 18 10 13 -37 -7 -127 -36 -140 -45 -18 -13 -117 -39 -126 -33 -16
9 1 24 27 24 13 0 24 4 24 9 0 11 90 47 108 43 6 -2 12 1 12 7 0 5 33 21 73
34 39 14 90 32 112 41 l40 14 -2 109 c-1 69 1 99 7 83 4 -14 9 -41 9 -60 1
-26 4 -31 11 -20 8 12 10 11 10 -7 0 -12 10 -34 23 -49 21 -24 27 -26 53 -17
l29 10 -31 16 c-17 9 -34 24 -38 32 -20 53 14 127 70 155 27 14 40 24 77 56 7
6 18 9 25 6 6 -2 12 1 12 7 0 5 20 19 45 30 25 11 45 25 45 30 0 6 5 11 10 11
6 0 28 11 51 25 22 14 44 23 49 20 10 -6 183 73 188 87 2 4 10 8 18 8 7 0 19
9 26 19 6 10 18 17 25 14 7 -3 13 0 13 7 0 7 7 10 16 6 8 -3 12 -2 9 3 -3 6 3
15 12 21 15 10 14 10 -9 6 -14 -3 -34 -9 -44 -13 -15 -5 -16 -2 -10 22 10 38
39 80 92 133 24 23 50 55 59 71 13 26 13 30 0 41 -8 7 -15 8 -15 3 0 -6 -9
-20 -20 -33 -13 -15 -20 -18 -20 -9 0 8 25 41 56 74 34 36 56 69 56 83 0 15
13 31 37 47 37 26 57 32 46 15 -8 -13 6 -61 16 -54 5 3 7 9 4 14 -3 5 0 20 6
33 9 19 25 29 68 40 31 8 60 10 66 5 5 -4 15 -8 23 -8z m153 -49 l-21 -21 -9
22 -9 23 -9 -24 -10 -24 -21 23 c-31 34 -27 47 16 57 32 8 40 6 61 -13 l23
-22 -21 -21z m711 47 c-11 -11 -52 -2 -52 11 0 4 14 6 31 3 20 -3 27 -8 21
-14z m78 1 c0 -5 -4 -9 -10 -9 -5 0 -10 7 -10 16 0 8 5 12 10 9 6 -3 10 -10
10 -16z m4311 4 c13 -16 12 -17 -3 -4 -10 7 -18 15 -18 17 0 8 8 3 21 -13z
m-4705 -4 c11 -18 -13 -34 -31 -19 -8 7 -15 16 -15 21 0 13 38 11 46 -2z
m-240 -36 c-3 -3 -13 0 -21 7 -13 10 -13 15 -3 21 13 8 35 -17 24 -28z m68 22
c3 -8 1 -15 -4 -15 -6 0 -10 7 -10 15 0 8 2 15 4 15 2 0 6 -7 10 -15z m-140
-16 c-8 -14 -24 -10 -24 6 0 9 6 12 15 9 8 -4 12 -10 9 -15z m226 11 c0 -5 -4
-10 -10 -10 -5 0 -10 5 -10 10 0 6 5 10 10 10 6 0 10 -4 10 -10z m4900 -101
c0 -6 -4 -7 -10 -4 -5 3 -10 11 -10 16 0 6 5 7 10 4 6 -3 10 -11 10 -16z m48
-59 c7 -11 11 -20 9 -20 -2 0 -12 9 -22 20 -10 11 -14 20 -9 20 5 0 15 -9 22
-20z m-5191 -29 c10 -15 9 -20 -2 -25 -8 -3 -15 -13 -15 -22 0 -11 -5 -14 -17
-9 -10 4 -31 11 -48 15 -16 4 -25 8 -18 9 7 1 24 12 39 26 32 30 45 31 61 6z
m873 -22 c0 -14 -17 -10 -23 5 -4 10 -1 13 9 9 7 -3 14 -9 14 -14z m4365 11
c3 -5 1 -10 -4 -10 -6 0 -11 5 -11 10 0 6 2 10 4 10 3 0 8 -4 11 -10z m-5102
-14 c3 -8 14 -12 25 -9 10 2 25 -2 33 -10 8 -7 19 -12 26 -10 7 3 10 -4 6 -19
-4 -18 -3 -20 6 -8 9 13 11 12 11 -4 0 -13 5 -16 16 -12 11 4 22 -1 32 -15 15
-22 16 -22 24 -3 5 12 6 6 3 -18 -4 -23 -2 -38 5 -38 5 0 10 9 10 20 0 17 2
19 14 8 8 -7 10 -14 5 -16 -5 -2 -9 -12 -9 -22 0 -14 7 -17 32 -15 18 1 34 7
36 14 6 17 22 13 23 -6 1 -17 2 -17 6 0 4 17 25 18 66 2 12 -5 17 -3 15 5 -2
7 3 15 10 17 6 3 13 -4 13 -14 1 -14 2 -15 6 -2 5 20 63 22 63 2 0 -7 -7 -13
-15 -13 -8 0 -15 -8 -15 -17 0 -15 2 -15 9 -4 8 12 12 12 26 -2 15 -15 15 -17
1 -17 -9 0 -16 -7 -16 -16 0 -10 -6 -14 -15 -10 -14 5 -19 -10 -18 -51 1 -7
-5 -13 -13 -13 -8 0 -14 5 -14 10 0 6 -9 10 -20 10 -11 0 -20 -4 -20 -10 0
-16 -22 -12 -36 8 -12 16 -13 16 -19 0 -9 -22 -45 -24 -45 -3 0 17 -16 20 -25
5 -7 -12 -46 -14 -44 -2 1 4 1 15 0 25 -1 24 -21 11 -21 -14 0 -14 -7 -19 -26
-19 -19 0 -25 -4 -20 -15 3 -8 0 -15 -5 -15 -7 0 -9 11 -7 24 4 18 1 23 -9 19
-8 -3 -12 -12 -9 -19 3 -8 2 -15 -2 -15 -32 -6 -53 -5 -58 2 -3 5 -13 5 -23
-1 -15 -8 -18 -5 -15 15 2 27 -10 42 -21 25 -10 -15 -35 -12 -35 5 0 17 -16
20 -25 5 -11 -18 -35 -11 -35 11 0 14 -5 19 -17 17 -11 -2 -17 -11 -15 -21 2
-9 -2 -17 -8 -17 -13 0 -13 47 0 55 6 4 8 11 4 16 -4 7 -10 7 -18 0 -7 -6 -18
-6 -25 -1 -15 9 -42 -9 -34 -22 2 -5 0 -8 -6 -8 -6 0 -8 -7 -5 -15 8 -21 -16
-19 -33 3 -10 12 -16 14 -19 5 -3 -7 -12 -13 -19 -13 -7 0 -15 6 -18 13 -3 9
-8 9 -21 -2 -16 -13 -20 -11 -41 15 -27 33 -27 51 0 46 15 -3 16 -1 8 10 -20
26 -24 80 -7 100 22 24 33 23 31 -2 -1 -12 -7 -18 -13 -16 -14 5 -23 -13 -17
-31 2 -7 11 -9 19 -6 7 3 11 10 7 17 -3 6 0 6 8 -2 11 -10 11 -16 1 -32 -18
-29 -15 -35 8 -15 12 11 20 13 20 6 0 -7 5 -9 10 -6 6 3 10 -2 10 -12 0 -15 2
-15 10 -3 7 12 12 12 29 -4 12 -11 21 -14 21 -9 0 6 18 9 41 8 42 -2 79 20 79
48 0 9 2 9 8 -1 6 -9 14 -7 30 8 24 23 32 50 8 31 -10 -9 -15 -8 -20 4 -3 8
-1 15 5 15 6 0 9 6 6 13 -2 6 -11 11 -19 9 -8 -1 -15 5 -15 13 0 8 8 15 18 15
10 0 21 5 24 11 4 6 13 8 21 5 8 -3 14 -1 14 4 0 16 37 12 43 -4z m819 -24
c-15 -5 -16 -58 -2 -67 16 -10 11 -21 -10 -21 -15 0 -19 5 -14 21 6 18 5 18
-14 -3 -11 -13 -23 -19 -26 -13 -3 5 -15 7 -26 4 -16 -4 -20 0 -20 20 0 13 7
30 15 37 17 15 19 7 5 -21 -6 -10 -7 -19 -3 -19 4 0 14 12 20 27 10 21 10 28
0 35 -14 9 -5 11 41 8 20 -1 32 3 33 12 0 10 2 9 6 -1 3 -8 1 -17 -5 -19z
m4318 -13 c0 -6 -4 -7 -10 -4 -5 3 -10 11 -10 16 0 6 5 7 10 4 6 -3 10 -11 10
-16z m-5360 -8 c0 -11 -4 -23 -10 -26 -6 -4 -9 5 -8 19 3 30 18 35 18 7z m30
9 c0 -5 -5 -10 -11 -10 -5 0 -7 5 -4 10 3 6 8 10 11 10 2 0 4 -4 4 -10z m900
-1 c0 -5 -5 -7 -12 -3 -8 5 -9 2 -5 -10 4 -10 3 -15 -3 -11 -15 10 -12 35 5
35 8 0 15 -5 15 -11z m126 -35 c-4 -9 -9 -15 -11 -12 -3 3 -3 13 1 22 4 9 9
15 11 12 3 -3 3 -13 -1 -22z m-1627 -56 c-13 -18 -29 -39 -36 -46 -7 -7 -13
-19 -13 -25 0 -7 -6 -3 -12 7 -9 16 -7 23 11 37 11 9 21 22 21 27 0 5 10 22
22 38 19 23 23 25 26 11 2 -9 -7 -32 -19 -49z m381 27 c0 -8 -2 -15 -4 -15 -2
0 -6 7 -10 15 -3 8 -1 15 4 15 6 0 10 -7 10 -15z m1270 5 c0 -5 -4 -10 -10
-10 -5 0 -10 5 -10 10 0 6 5 10 10 10 6 0 10 -4 10 -10z m86 -16 c-4 -9 -2
-13 5 -8 6 4 15 0 20 -7 7 -11 9 -10 9 4 0 9 4 17 9 17 5 0 8 -8 7 -17 -1 -12
5 -17 18 -15 14 3 17 -1 12 -13 -3 -9 -6 -25 -6 -36 0 -10 -5 -19 -11 -19 -6
0 -8 9 -4 20 5 15 3 19 -10 14 -9 -4 -14 -13 -11 -20 3 -8 2 -14 -3 -14 -5 0
-11 9 -14 21 -3 11 -15 23 -27 26 -13 4 -19 11 -16 20 3 8 6 21 6 29 0 8 5 14
11 14 6 0 8 -7 5 -16z m-33 -24 c-3 -12 -8 -19 -11 -16 -5 6 5 36 12 36 2 0 2
-9 -1 -20z m4342 11 c3 -5 1 -12 -5 -16 -5 -3 -10 1 -10 9 0 18 6 21 15 7z
m-4214 -78 c-9 -15 -10 -14 -7 7 6 35 7 37 12 23 3 -7 1 -20 -5 -30z m-2444 5
c-3 -8 -6 -5 -6 6 -1 11 2 17 5 13 3 -3 4 -12 1 -19z m537 3 c3 -5 -1 -14 -9
-21 -8 -7 -15 -18 -15 -25 0 -11 -44 -31 -62 -27 -4 1 -10 -7 -13 -18 -4 -11
-11 -20 -17 -20 -5 0 -24 -10 -41 -22 -18 -12 -4 6 31 41 34 34 62 66 62 72 0
5 7 9 15 9 8 0 15 5 15 10 0 12 27 13 34 1z m1976 -17 c0 -22 -16 -17 -17 6
-1 11 2 18 8 15 5 -4 9 -13 9 -21z m-1570 6 c0 -5 -4 -10 -10 -10 -5 0 -10 5
-10 10 0 6 5 10 10 10 6 0 10 -4 10 -10z m58 -2 c18 -18 15 -28 -8 -28 -13 0
-20 7 -20 20 0 23 10 26 28 8z m232 -20 c0 -5 -5 -6 -12 -2 -8 5 -9 2 -5 -9 4
-11 1 -17 -8 -17 -9 0 -15 10 -15 24 0 19 4 23 20 19 11 -3 20 -10 20 -15z
m1246 -5 c-10 -10 -19 5 -10 18 6 11 8 11 12 0 2 -7 1 -15 -2 -18z m-39 -15
c-3 -8 -6 -5 -6 6 -1 11 2 17 5 13 3 -3 4 -12 1 -19z m58 -8 c3 -5 1 -10 -4
-10 -6 0 -11 5 -11 10 0 6 2 10 4 10 3 0 8 -4 11 -10z m-220 -40 c3 -5 -1 -10
-10 -10 -9 0 -13 5 -10 10 3 6 8 10 10 10 2 0 7 -4 10 -10z m70 0 c3 -5 1 -10
-4 -10 -6 0 -11 5 -11 10 0 6 2 10 4 10 3 0 8 -4 11 -10z m840 0 c3 -5 1 -10
-4 -10 -6 0 -11 5 -11 10 0 6 2 10 4 10 3 0 8 -4 11 -10z m-755 -4 c0 -3 -4
-8 -10 -11 -5 -3 -10 -1 -10 4 0 6 5 11 10 11 6 0 10 -2 10 -4z m145 -6 c3 -5
1 -10 -4 -10 -6 0 -11 5 -11 10 0 6 2 10 4 10 3 0 8 -4 11 -10z m-2155 -35 c0
-2 -10 -10 -22 -16 -21 -11 -22 -11 -9 4 13 16 31 23 31 12z m298 -51 c1 -16
-2 -24 -10 -22 -7 3 -25 -8 -40 -24 -15 -16 -41 -31 -58 -34 -17 -4 -30 -13
-30 -21 0 -8 -4 -11 -10 -8 -30 19 21 75 69 75 9 0 30 14 46 30 16 17 29 30
30 30 0 0 2 -12 3 -26z m-368 6 c0 -5 -5 -10 -11 -10 -5 0 -7 5 -4 10 3 6 8
10 11 10 2 0 4 -4 4 -10z m520 -59 c0 -13 -28 -22 -35 -11 -3 4 1 11 7 13 20
8 28 8 28 -2z m-48 -13 c3 -7 -6 -18 -20 -25 -31 -16 -32 -16 -32 3 0 8 5 12
10 9 6 -3 13 1 16 9 7 19 21 21 26 4z m109 -35 c7 -7 -2 -18 -26 -32 -31 -18
-40 -19 -53 -9 -13 11 -14 10 -8 -9 7 -20 5 -22 -15 -14 -31 11 -35 28 -10 36
12 3 21 11 21 16 0 5 8 9 18 7 9 -2 16 2 15 9 -3 13 44 10 58 -4z m-806 -3
c-3 -5 -12 -10 -18 -10 -7 0 -6 4 3 10 19 12 23 12 15 0z m410 0 c3 -5 -1 -10
-9 -10 -9 0 -16 5 -16 10 0 6 4 10 9 10 6 0 13 -4 16 -10z m260 -68 c-8 -8
-25 10 -19 20 4 6 9 5 15 -3 4 -7 6 -15 4 -17z m-918 -34 c-3 -8 -6 -5 -6 6
-1 11 2 17 5 13 3 -3 4 -12 1 -19z m2960 0 c-3 -8 -6 -5 -6 6 -1 11 2 17 5 13
3 -3 4 -12 1 -19z m-2620 6 c-3 -3 -12 -4 -19 -1 -8 3 -5 6 6 6 11 1 17 -2 13
-5z m2593 -14 c0 -5 -7 -10 -16 -10 -8 0 -12 5 -9 10 3 6 10 10 16 10 5 0 9
-4 9 -10z m1508 -95 c-3 -3 -9 2 -12 12 -6 14 -5 15 5 6 7 -7 10 -15 7 -18z
m-4862 -304 c-4 -5 0 -11 6 -14 7 -2 11 -7 8 -10 -9 -10 -33 10 -26 22 4 6 9
11 12 11 3 0 3 -4 0 -9z m-46 -21 c0 -5 -5 -10 -11 -10 -5 0 -7 5 -4 10 3 6 8
10 11 10 2 0 4 -4 4 -10z m-83 -176 c-3 -3 -12 -4 -19 -1 -8 3 -5 6 6 6 11 1
17 -2 13 -5z m868 -154 c-3 -5 -11 -10 -16 -10 -6 0 -7 5 -4 10 3 6 11 10 16
10 6 0 7 -4 4 -10z m-73 -42 c-7 -7 -12 -8 -12 -2 0 14 12 26 19 19 2 -3 -1
-11 -7 -17z m-72 -28 c0 -5 -4 -10 -10 -10 -5 0 -10 5 -10 10 0 6 5 10 10 10
6 0 10 -4 10 -10z m116 -37 c-3 -4 -13 2 -21 13 -22 29 -18 41 6 15 12 -12 18
-25 15 -28z m-113 1 c9 -9 -44 -50 -59 -46 -7 1 -15 -2 -19 -8 -3 -5 -11 -10
-16 -10 -6 0 -7 5 -4 10 11 18 -10 10 -28 -10 -10 -11 -29 -20 -46 -20 -17 0
-31 -6 -35 -16 -5 -13 -9 -14 -20 -5 -11 9 -15 8 -20 -5 -4 -11 -16 -15 -38
-12 -18 2 -33 0 -33 -3 0 -4 -9 -17 -19 -28 -18 -20 -21 -20 -29 -5 -6 10 -12
12 -16 6 -3 -6 -19 -8 -34 -5 l-28 6 34 23 c19 13 53 29 76 36 22 7 41 15 41
18 0 3 19 6 42 7 23 1 44 6 47 10 3 4 13 9 21 11 8 2 22 10 31 18 9 8 23 12
32 9 8 -4 18 -2 21 3 3 6 15 8 25 5 10 -3 22 0 25 6 8 12 39 15 49 5z m-83
-100 c0 -8 -5 -12 -10 -9 -6 4 -8 11 -5 16 9 14 15 11 15 -7z m-1200 -71 c-58
-54 -60 -55 -60 -41 -1 7 -7 2 -15 -12 -16 -29 -79 -71 -69 -46 3 8 14 18 24
21 10 3 20 14 23 25 3 11 13 23 24 27 10 3 31 17 46 30 41 33 64 29 27 -4z
m1000 23 c0 -2 -7 -7 -16 -10 -8 -3 -12 -2 -9 4 6 10 25 14 25 6z m-440 -53
c-20 -25 -60 -40 -60 -21 0 4 7 8 15 8 7 0 18 6 22 14 7 11 23 21 41 25 2 1
-6 -11 -18 -26z m2063 -5 c56 -44 59 -48 81 -91 11 -20 22 -37 25 -37 5 0 28
-17 78 -60 7 -5 16 -10 21 -10 15 0 106 -104 94 -108 -30 -10 -312 213 -366
290 -15 21 -15 24 1 35 22 17 18 18 66 -19z m-2282 -1 c-10 -9 -11 -8 -5 6 3
10 9 15 12 12 3 -3 0 -11 -7 -18z m524 -6 c3 -5 1 -12 -4 -15 -5 -3 -11 1 -15
9 -6 16 9 21 19 6z m-438 -31 c-1 -8 -9 -21 -17 -27 -13 -11 -13 -14 0 -23 13
-8 12 -10 -4 -10 -14 0 -16 -3 -7 -13 8 -11 6 -18 -9 -32 -12 -11 -18 -26 -15
-35 8 -24 -5 -52 -20 -46 -7 2 -21 -4 -31 -15 -9 -10 -12 -19 -6 -19 6 0 12 5
14 12 3 9 12 9 34 -3 37 -19 41 -36 9 -51 -16 -7 -29 -25 -37 -49 -9 -32 -13
-36 -22 -23 -6 8 -24 16 -41 18 -17 2 -32 11 -36 22 -7 17 -8 17 -8 2 -1 -11
-9 -18 -21 -18 -11 0 -20 -4 -20 -10 0 -5 -7 -7 -15 -4 -9 4 -15 0 -15 -10 0
-9 -4 -16 -10 -16 -13 0 -13 23 1 37 6 6 9 17 7 25 -3 8 -11 2 -20 -17 -8 -16
-13 -37 -10 -45 4 -13 3 -13 -11 -1 -9 7 -14 18 -10 24 3 6 1 7 -6 3 -6 -4 -9
-12 -6 -17 4 -5 -5 -9 -19 -9 -14 0 -27 -4 -30 -9 -3 -4 -19 -11 -36 -14 -31
-7 -37 -21 -20 -47 8 -12 10 -10 10 9 0 22 3 23 41 18 23 -3 47 -11 53 -18 8
-9 7 -10 -7 -6 -11 4 -29 -2 -47 -14 -30 -23 -60 -20 -60 5 0 9 -8 14 -20 13
-11 -1 -20 -4 -20 -8 0 -4 -13 -11 -28 -17 -26 -9 -31 -7 -55 24 -15 18 -28
46 -28 61 l-1 28 -8 -30 c-8 -32 -10 -32 -14 3 -3 21 0 24 27 26 6 1 18 9 26
19 7 10 20 16 28 13 19 -8 40 4 25 13 -7 4 3 21 24 43 18 20 34 41 34 46 0 6
7 13 16 16 9 3 14 13 11 20 -6 16 16 40 26 29 4 -3 7 -1 7 6 0 6 7 11 16 9 9
-2 21 6 28 17 18 33 39 44 79 45 20 0 37 4 37 8 0 5 14 6 31 4 22 -3 30 -1 25
7 -4 6 -2 11 3 11 6 0 11 -6 11 -12 0 -7 5 -5 11 5 5 9 18 17 27 18 12 0 13 2
3 6 -26 11 10 21 70 19 46 -1 58 -4 56 -16z m383 6 c0 -2 -8 -10 -17 -17 -16
-13 -17 -12 -4 4 13 16 21 21 21 13z m-940 -113 c-1 -5 -19 -26 -40 -48 -22
-22 -40 -45 -40 -51 0 -7 -7 -15 -16 -18 -9 -4 -14 -9 -11 -12 3 -3 -8 -19
-24 -35 -16 -15 -29 -33 -29 -39 0 -6 -4 -8 -10 -5 -9 6 18 45 109 157 43 53
61 68 61 51z m235 -265 c4 -3 -3 -9 -15 -13 -24 -8 -35 -2 -26 13 6 11 31 10
41 0z m182 -31 c-1 -17 3 -21 18 -19 11 2 17 1 13 -3 -12 -12 -80 -17 -73 -5
8 13 -11 13 -37 -1 -11 -6 -22 -8 -26 -5 -9 10 31 35 56 36 12 0 21 3 21 8 -3
16 2 21 16 16 8 -3 13 -16 12 -27z m-782 11 c14 -6 25 -15 25 -19 0 -5 13 -1
28 8 26 15 30 15 65 -8 21 -14 39 -35 42 -50 3 -15 14 -35 23 -45 46 -52 100
-121 111 -142 10 -19 10 -27 -2 -45 -27 -40 -54 -67 -68 -67 -8 0 -26 -13 -40
-29 -34 -38 -25 -66 22 -66 31 0 34 -2 33 -30 0 -16 4 -33 10 -37 7 -5 5 -8
-5 -8 -9 0 -22 -11 -29 -25 -7 -14 -16 -25 -20 -25 -4 0 -7 -14 -8 -31 -1 -37
-46 -85 -90 -96 -15 -3 -33 -12 -40 -20 -7 -7 -23 -13 -35 -12 -12 0 -17 3
-10 5 7 3 22 21 34 40 21 34 21 36 3 49 -18 13 -18 14 -1 20 9 4 17 11 17 15
0 4 13 22 29 39 17 18 28 38 24 47 -3 7 -1 14 4 14 5 0 10 7 10 15 0 8 -4 15
-9 15 -4 0 -8 -5 -8 -10 0 -6 -6 -10 -13 -8 -7 2 -37 -18 -67 -43 -64 -54
-100 -70 -100 -43 0 13 -3 14 -14 5 -8 -6 -18 -11 -22 -10 -28 5 -44 -7 -77
-57 -20 -31 -37 -65 -37 -75 0 -11 -6 -19 -14 -19 -10 0 -13 -9 -11 -30 3 -23
0 -30 -13 -30 -15 0 -15 -2 -2 -10 12 -8 13 -13 3 -30 -7 -11 -13 -24 -13 -30
0 -21 -71 -87 -130 -120 -33 -18 -60 -37 -60 -40 0 -4 -16 -24 -35 -46 -19
-21 -35 -45 -35 -51 0 -24 -32 -93 -41 -87 -5 3 -14 -6 -20 -20 -7 -14 -16
-23 -20 -20 -5 3 -14 -8 -21 -23 -6 -15 -22 -39 -35 -53 -26 -30 -108 -185
-148 -285 -16 -38 -53 -105 -82 -147 -29 -43 -53 -80 -53 -83 0 -3 -15 -26
-34 -52 -47 -66 -67 -111 -111 -238 -37 -109 -80 -205 -91 -205 -13 0 42 181
96 320 54 138 149 345 192 419 20 35 69 145 108 245 39 99 77 195 85 211 9 17
19 44 24 60 5 19 14 29 23 27 16 -2 28 11 90 108 110 172 253 385 303 451 30
40 55 78 55 86 0 7 4 13 8 13 4 0 16 15 26 33 24 40 31 49 100 121 31 32 56
62 56 66 0 10 68 70 79 70 4 0 21 -11 36 -24 16 -14 32 -23 37 -20 11 7 10 -3
-1 -24 -13 -25 12 -56 38 -47 25 8 27 -3 6 -32 -8 -11 -13 -34 -12 -51 2 -27
5 -31 26 -27 26 5 41 15 23 15 -16 0 -15 33 0 48 9 9 8 12 -7 12 -18 0 -18 1
3 16 12 8 22 18 22 22 -1 15 -77 90 -115 112 -22 14 -52 39 -68 57 -15 17 -44
37 -63 43 -19 6 -32 16 -29 21 8 11 9 11 40 -3z m534 -83 c12 -12 -3 -33 -47
-64 -18 -12 -30 -26 -27 -31 3 -4 -2 -11 -11 -14 -18 -7 -74 49 -74 74 0 20
20 51 20 31 0 -9 6 -7 19 7 10 12 21 19 25 15 3 -3 6 -2 6 4 0 12 73 -6 89
-22z m39 -8 c5 -24 -15 -21 -21 4 -3 13 -1 19 6 16 7 -2 13 -11 15 -20z m303
-141 c-6 -14 -15 -26 -21 -26 -6 0 -15 -10 -20 -22 -5 -13 -9 -17 -9 -10 -1
15 49 96 55 89 3 -2 0 -16 -5 -31z m-63 -71 c-3 -3 -9 2 -12 12 -6 14 -5 15 5
6 7 -7 10 -15 7 -18z m-18 -5 c0 -5 -4 -10 -10 -10 -5 0 -10 5 -10 10 0 6 5
10 10 10 6 0 10 -4 10 -10z m-195 -11 c-4 -6 0 -9 11 -7 11 2 18 -2 17 -9 -3
-15 6 -16 27 -4 26 17 30 0 6 -26 -28 -30 -61 -25 -79 14 -9 19 -8 26 4 34 18
12 22 11 14 -2z m-168 -36 c7 -9 23 -28 35 -42 45 -51 76 -114 49 -96 -13 8
-22 -10 -23 -45 -1 -32 -22 -56 -53 -62 -15 -2 -21 3 -23 25 -2 15 1 27 7 27
6 0 11 6 11 14 0 8 13 26 30 39 l30 25 -43 44 c-23 24 -53 56 -67 72 l-25 29
30 -7 c17 -4 36 -14 42 -23z m803 -142 c0 -12 -20 -25 -27 -18 -7 7 6 27 18
27 5 0 9 -4 9 -9z m-383 -56 c2 -25 0 -45 -5 -45 -16 0 -62 41 -62 55 0 14 51
47 59 39 2 -2 6 -24 8 -49z m343 25 c0 -5 -4 -10 -10 -10 -5 0 -10 5 -10 10 0
6 5 10 10 10 6 0 10 -4 10 -10z m-524 -78 c48 -45 124 -148 124 -167 0 -2 -8
-1 -17 2 -20 8 -83 66 -83 77 0 4 -18 31 -40 61 -44 59 -34 75 16 27z m598
-37 c3 -8 1 -15 -4 -15 -6 0 -10 -7 -10 -16 0 -8 -4 -12 -10 -9 -5 3 -10 1
-10 -4 0 -6 -7 -11 -15 -11 -8 0 -15 -4 -15 -8 0 -8 -46 -63 -106 -128 -12
-12 -19 -25 -16 -28 3 -3 -2 -6 -11 -6 -21 0 -37 31 -36 67 1 27 22 50 128
134 25 20 57 26 46 10 -3 -5 -1 -12 5 -16 5 -3 10 -1 10 5 0 12 21 39 31 40 4
0 9 -7 13 -15z m-542 -124 c-11 -7 -11 -12 -1 -28 10 -17 9 -26 -11 -59 -13
-22 -41 -60 -62 -85 -20 -25 -35 -49 -31 -53 3 -3 -3 -6 -15 -6 -12 0 -22 -4
-22 -10 0 -5 -5 -10 -11 -10 -7 0 -8 19 -3 58 3 31 7 71 8 89 0 17 4 29 7 27
4 -2 16 19 27 46 12 28 26 50 32 50 6 0 8 5 4 12 -5 7 -2 9 9 5 9 -3 18 1 22
11 5 13 10 12 33 -11 21 -22 24 -29 14 -36z m113 -39 c24 -20 75 -94 123 -177
32 -58 33 -59 7 -35 -15 14 -41 45 -58 70 -17 25 -35 50 -39 55 -47 59 -77
105 -66 105 7 -1 22 -8 33 -18z m-459 -97 c-19 -20 -21 -35 -3 -35 6 0 1 -9
-13 -20 -14 -11 -21 -20 -17 -20 4 0 3 -6 -3 -12 -41 -49 -50 -63 -50 -76 0
-12 -3 -12 -15 -2 -12 10 -15 9 -15 -8 0 -11 -5 -22 -10 -24 -6 -2 -12 -14
-15 -27 -6 -31 -36 -65 -45 -51 -4 6 -12 0 -19 -14 -8 -14 -19 -22 -27 -19
-23 9 -16 -31 9 -52 12 -10 24 -19 27 -18 20 3 27 -11 20 -37 -6 -20 -5 -30 3
-33 15 -6 -40 -57 -60 -57 -10 0 -12 -6 -8 -20 4 -11 2 -20 -4 -20 -6 0 -11 4
-11 10 0 5 -7 7 -15 4 -8 -4 -15 -12 -15 -20 0 -8 -4 -14 -9 -14 -12 0 -8 45
6 62 6 7 13 25 17 41 3 15 13 27 21 27 8 0 15 4 15 9 0 11 -38 21 -42 11 -2
-4 -14 -3 -28 2 -15 6 -20 12 -12 15 6 3 12 11 12 19 0 8 6 11 15 8 18 -7 20
7 3 24 -9 9 -8 12 4 12 12 0 15 7 12 28 -3 21 2 36 21 56 14 15 25 30 25 35 0
4 10 18 23 31 12 14 21 28 20 32 -2 5 2 8 7 8 6 0 10 7 10 15 0 8 5 15 10 15
6 0 10 4 10 9 0 9 68 81 77 81 3 0 14 11 24 25 13 15 26 22 36 18 12 -5 14 -3
8 8 -6 11 -5 11 5 2 10 -9 10 -15 -4 -28z m349 -98 c-3 -12 -2 -42 3 -67 6
-34 5 -49 -4 -58 -7 -7 -16 -12 -19 -12 -12 0 -142 -139 -170 -182 -37 -56
-103 -118 -118 -112 -7 2 -23 -6 -37 -19 -21 -20 -31 -22 -68 -17 -45 7 -61
-3 -49 -34 3 -8 -2 -17 -10 -21 -15 -5 -15 -7 0 -22 15 -15 15 -18 1 -34 -9
-10 -14 -26 -11 -36 4 -16 6 -15 12 5 4 12 12 22 17 22 6 0 7 -7 4 -16 -3 -9
-6 -22 -6 -30 0 -8 -7 -14 -15 -14 -11 0 -14 -7 -9 -25 5 -20 2 -25 -12 -25
-14 0 -20 -8 -21 -32 -2 -18 -7 -34 -13 -36 -6 -2 -8 -8 -5 -12 8 -13 -51
-135 -79 -163 -14 -15 -26 -35 -26 -45 0 -10 -3 -22 -7 -26 -5 -4 -8 -11 -9
-14 -1 -7 -18 -52 -33 -87 -5 -11 -24 -55 -42 -98 -18 -43 -47 -93 -66 -112
-18 -18 -33 -42 -33 -54 0 -22 -53 -57 -70 -46 -6 3 -10 1 -10 -5 0 -7 -6 -8
-19 -1 -10 6 -40 8 -65 6 -34 -4 -48 -1 -52 9 -3 8 -13 12 -25 9 -13 -4 -19 0
-19 11 0 10 5 14 10 11 6 -3 10 -3 10 2 0 4 13 22 30 39 25 27 43 67 45 97 0
4 7 12 15 17 8 5 11 10 6 10 -6 0 7 15 27 34 39 36 87 100 87 116 0 5 14 32
30 59 17 26 35 64 41 82 27 85 127 282 153 304 21 17 57 86 50 96 -3 6 3 13
14 16 13 3 18 11 15 19 -3 10 2 14 18 14 18 0 20 3 10 9 -10 7 -6 14 19 32 17
13 32 22 33 20 5 -13 47 23 47 39 0 11 3 20 8 20 5 0 73 58 125 108 23 22 77
88 77 95 0 4 0 9 0 12 0 3 32 37 71 76 93 92 157 121 144 66z m-460 -387 c3
-5 1 -10 -4 -10 -6 0 -11 5 -11 10 0 6 2 10 4 10 3 0 8 -4 11 -10z m-25 -10
c0 -5 -4 -10 -10 -10 -5 0 -10 5 -10 10 0 6 5 10 10 10 6 0 10 -4 10 -10z
m-194 -17 c-11 -11 -48 -14 -41 -3 3 5 16 10 27 10 12 0 18 -3 14 -7z m274
-68 c0 -3 -9 -15 -20 -27 -22 -24 -26 -18 -8 12 12 19 28 27 28 15z m-1107
-280 c9 9 17 12 17 7 0 -5 11 -13 25 -16 14 -4 25 -14 25 -22 0 -10 6 -14 15
-10 8 3 15 1 15 -4 0 -6 -5 -10 -11 -10 -6 0 -9 -7 -5 -15 6 -18 -22 -35 -58
-35 -14 0 -28 -5 -31 -10 -4 -6 -10 -8 -15 -5 -5 3 -14 -3 -19 -14 -14 -26
-14 -31 3 -31 8 0 18 -4 21 -10 3 -5 0 -7 -8 -4 -8 3 -18 1 -22 -5 -14 -24
-85 -1 -85 27 0 23 49 122 72 145 19 20 25 21 34 9 9 -12 13 -12 27 3z m2407
4 c0 -5 4 -8 9 -5 5 4 7 -3 4 -14 -3 -11 -10 -20 -15 -20 -6 0 -5 -6 2 -15 6
-8 9 -19 6 -24 -4 -5 5 -22 19 -37 14 -15 25 -35 25 -45 0 -13 5 -17 18 -12
16 7 16 6 0 -11 -25 -24 -7 -61 22 -46 13 7 21 7 26 -2 12 -19 15 -148 5 -148
-5 0 -22 26 -38 58 -36 71 -83 146 -95 150 -16 7 -38 62 -37 94 2 46 19 88 35
88 8 0 14 -5 14 -11z m-2348 -157 c-12 -4 -4 -32 9 -32 4 0 6 7 3 15 -4 9 0
15 9 15 8 0 17 6 20 13 2 6 4 -1 4 -18 0 -30 -1 -30 -54 -30 -51 0 -69 10 -39
21 8 3 17 12 20 20 3 9 1 12 -4 9 -6 -3 -10 1 -10 9 0 23 44 25 48 1 2 -10 -1
-21 -6 -23z m2197 -11 c17 -31 111 -269 111 -281 0 -5 -3 -10 -8 -10 -15 0
-132 266 -132 302 0 15 19 8 29 -11z m126 -321 c3 -5 1 -10 -4 -10 -6 0 -11 5
-11 10 0 6 2 10 4 10 3 0 8 -4 11 -10z m-225 -480 c0 -5 -5 -10 -11 -10 -5 0
-7 5 -4 10 3 6 8 10 11 10 2 0 4 -4 4 -10z m-2004 -517 c-10 -10 -19 5 -10 18
6 11 8 11 12 0 2 -7 1 -15 -2 -18z m-86 -173 c0 -5 -4 -10 -10 -10 -5 0 -10 5
-10 10 0 6 5 10 10 10 6 0 10 -4 10 -10z"/>
<path d="M7840 10430 c0 -17 2 -19 14 -8 14 13 12 28 -5 28 -5 0 -9 -9 -9 -20z"/>
<path d="M7896 9973 c5 -5 12 -12 16 -18 4 -6 8 -2 8 8 0 9 -7 17 -17 17 -9 0
-12 -3 -7 -7z"/>
<path d="M7880 9948 c0 -7 5 -20 10 -28 8 -12 10 -11 10 7 0 12 -4 25 -10 28
-5 3 -10 0 -10 -7z"/>
<path d="M7901 9854 c0 -11 3 -14 6 -6 3 7 2 16 -1 19 -3 4 -6 -2 -5 -13z"/>
<path d="M7401 8942 c-6 -11 -11 -28 -11 -37 0 -9 -7 -29 -15 -45 -10 -19 -11
-30 -5 -30 6 0 22 -26 36 -57 27 -60 93 -156 129 -185 11 -9 21 -15 22 -14 1
1 -3 37 -9 81 -9 71 -16 89 -64 164 -30 46 -54 91 -54 100 0 9 -4 22 -9 30 -7
11 -11 10 -20 -7z"/>
<path d="M8200 8730 c0 -11 5 -20 10 -20 6 0 10 9 10 20 0 11 -4 20 -10 20 -5
0 -10 -9 -10 -20z"/>
<path d="M8445 8268 c-2 -7 -5 -26 -8 -43 -2 -16 -8 -38 -12 -47 -4 -10 -3
-18 1 -18 20 1 35 18 35 41 0 13 -1 36 -1 52 0 28 -8 36 -15 15z"/>
<path d="M8350 8175 c-8 -10 -16 -32 -17 -49 0 -17 -3 -48 -6 -68 -5 -33 -3
-38 14 -38 10 0 19 4 19 10 0 5 7 7 15 4 8 -4 15 -1 15 5 0 6 -4 11 -10 11 -5
0 -10 32 -12 72 -3 65 -4 70 -18 53z"/>
<path d="M8477 8139 c-4 -16 -3 -18 9 -8 7 6 11 15 8 20 -8 13 -11 11 -17 -12z"/>
<path d="M8397 8123 c-13 -12 -7 -33 8 -33 8 0 15 9 15 20 0 20 -11 26 -23 13z"/>
<path d="M7710 8048 c0 -25 3 -29 10 -18 13 20 13 50 0 50 -5 0 -10 -15 -10
-32z"/>
<path d="M8442 8050 c-7 -11 -8 -20 -3 -20 9 0 24 30 18 36 -1 2 -8 -6 -15
-16z"/>
<path d="M8458 7980 c-6 -39 -3 -49 12 -34 5 5 6 22 1 39 l-8 30 -5 -35z"/>
<path d="M8785 8000 c3 -5 8 -10 11 -10 2 0 4 5 4 10 0 6 -5 10 -11 10 -5 0
-7 -4 -4 -10z"/>
<path d="M7380 7984 c0 -14 3 -14 15 -4 8 7 15 14 15 16 0 2 -7 4 -15 4 -8 0
-15 -7 -15 -16z"/>
<path d="M8576 7935 c-3 -8 -1 -15 4 -15 6 0 10 7 10 15 0 8 -2 15 -4 15 -2 0
-6 -7 -10 -15z"/>
<path d="M8609 7874 c-14 -17 -31 -79 -33 -119 0 -16 -10 -40 -21 -53 -30 -35
-37 -62 -20 -69 9 -3 21 -1 28 3 7 5 4 1 -6 -9 -18 -16 -18 -19 -5 -35 8 -9
18 -26 22 -37 7 -19 9 -19 32 8 13 15 24 33 24 39 0 7 -6 4 -13 -7 -10 -12
-16 -14 -21 -7 -4 7 -4 12 1 12 4 0 1 5 -7 10 -12 7 -12 12 -2 22 9 9 12 9 12
-2 0 -9 12 -2 28 16 16 17 35 33 43 36 11 4 11 9 -4 26 -19 20 -16 69 3 57 14
-9 24 65 11 78 -11 11 -16 0 -12 -30 1 -6 -3 -14 -8 -18 -11 -6 -26 58 -18 78
7 17 -20 18 -34 1z"/>
<path d="M8300 7865 c0 -8 4 -15 9 -15 5 0 14 7 21 15 10 13 9 15 -9 15 -12 0
-21 -6 -21 -15z"/>
<path d="M7642 7826 c-42 -83 -23 -119 39 -75 31 22 35 39 18 88 -15 43 -31
39 -57 -13z"/>
<path d="M8320 7840 c0 -5 5 -10 10 -10 6 0 10 5 10 10 0 6 -4 10 -10 10 -5 0
-10 -4 -10 -10z"/>
<path d="M8425 7780 c-3 -6 1 -7 9 -4 18 7 21 14 7 14 -6 0 -13 -4 -16 -10z"/>
<path d="M7710 7680 c0 -22 4 -28 15 -24 8 4 15 14 15 24 0 10 -7 20 -15 24
-11 4 -15 -2 -15 -24z"/>
<path d="M7716 7614 c-4 -15 -2 -32 3 -37 6 -6 11 -7 12 -1 4 50 4 64 -2 64
-4 0 -10 -12 -13 -26z"/>
<path d="M8655 7630 c-3 -5 -2 -10 4 -10 5 0 13 5 16 10 3 6 2 10 -4 10 -5 0
-13 -4 -16 -10z"/>
<path d="M7897 7536 c-28 -29 -39 -57 -39 -99 1 -48 8 -56 27 -31 29 37 43 81
36 114 -6 31 -7 32 -24 16z"/>
<path d="M8470 7450 c-8 -5 -11 -10 -7 -10 5 0 -3 -21 -17 -46 -14 -26 -31
-76 -36 -113 -6 -36 -13 -77 -15 -91 -7 -36 15 -42 41 -10 13 15 24 31 24 35
0 4 7 21 15 39 9 18 19 52 23 76 4 25 11 43 16 42 12 -5 26 19 26 46 0 15 -8
26 -26 32 -30 12 -26 12 -44 0z"/>
<path d="M8850 7275 c0 -9 -7 -15 -17 -13 -10 2 -22 -7 -30 -22 -10 -19 -13
-21 -13 -7 0 16 -2 17 -15 4 -8 -8 -16 -25 -19 -38 -2 -13 -5 -28 -6 -34 -1
-5 -2 -12 0 -15 6 -17 8 -63 2 -53 -8 13 -10 11 -51 -40 -12 -15 -12 -17 3
-11 10 4 16 1 16 -7 0 -7 3 -9 7 -6 3 4 11 3 17 -2 8 -7 20 7 40 45 18 33 37
56 50 60 27 6 47 49 41 91 -2 18 0 35 6 38 13 8 2 25 -17 25 -8 0 -14 -7 -14
-15z"/>
<path d="M7935 7220 c-3 -5 -1 -10 4 -10 6 0 11 5 11 10 0 6 -2 10 -4 10 -3 0
-8 -4 -11 -10z"/>
<path d="M8890 7140 c0 -5 7 -10 16 -10 8 0 12 5 9 10 -3 6 -10 10 -16 10 -5
0 -9 -4 -9 -10z"/>
<path d="M9345 7140 c3 -5 12 -7 20 -3 21 7 19 13 -6 13 -11 0 -18 -4 -14 -10z"/>
<path d="M8006 7121 c-4 -7 -5 -15 -2 -18 9 -9 19 4 14 18 -4 11 -6 11 -12 0z"/>
<path d="M8940 7120 c-9 -6 -10 -10 -3 -10 6 0 15 5 18 10 8 12 4 12 -15 0z"/>
<path d="M9222 7109 c-13 -5 -28 -6 -33 -3 -13 7 -71 -30 -87 -55 -10 -18 -10
-21 2 -21 8 0 18 5 21 10 3 6 11 10 16 10 6 0 7 -6 2 -12 -10 -18 46 20 81 54
32 30 32 31 -2 17z"/>
<path d="M8238 7014 c-12 -11 -9 -84 2 -84 6 0 13 7 17 16 7 19 -9 78 -19 68z"/>
<path d="M7808 6933 c-5 -50 6 -93 15 -63 11 33 16 81 11 95 -11 28 -22 15
-26 -32z"/>
<path d="M8813 6954 c-11 -23 -10 -24 27 -24 21 0 43 7 50 15 11 14 7 19 -12
16 -4 0 -18 3 -30 8 -20 7 -26 5 -35 -15z"/>
<path d="M7916 6924 c-3 -9 -4 -20 0 -25 7 -12 34 -11 34 1 0 6 -5 10 -11 10
-6 0 -9 7 -5 15 3 8 1 15 -3 15 -5 0 -12 -7 -15 -16z"/>
<path d="M8807 6889 c-19 -21 -20 -52 -2 -47 6 1 8 9 7 17 -2 8 7 23 20 33 15
11 18 17 8 17 -8 0 -23 -10 -33 -20z"/>
<path d="M7590 6864 c0 -8 5 -12 10 -9 6 3 10 10 10 16 0 5 -4 9 -10 9 -5 0
-10 -7 -10 -16z"/>
<path d="M8355 6849 c-4 -6 -4 -36 1 -67 4 -31 7 -62 5 -69 -1 -6 3 -14 9 -18
9 -6 16 30 11 65 -1 8 -2 32 -3 53 -1 39 -12 55 -23 36z"/>
<path d="M8222 6808 c-24 -24 -7 -185 23 -214 8 -9 15 -20 15 -26 0 -6 3 -8 7
-5 12 13 14 80 3 108 -10 24 -15 58 -19 132 -1 20 -12 22 -29 5z"/>
<path d="M8637 6813 c-3 -3 -3 -11 0 -19 3 -8 -1 -14 -11 -14 -9 0 -16 -7 -16
-15 0 -8 -5 -24 -12 -34 -6 -10 -8 -26 -3 -37 6 -15 8 -16 13 -4 3 8 8 17 12
20 6 5 50 87 50 94 0 7 -28 15 -33 9z"/>
<path d="M7930 6671 c0 -12 5 -21 10 -21 6 0 10 6 10 14 0 8 -4 18 -10 21 -5
3 -10 -3 -10 -14z"/>
<path d="M8328 6596 c-12 -17 -15 -38 -12 -87 7 -112 15 -169 24 -174 12 -7
19 40 24 162 5 112 -5 139 -36 99z"/>
<path d="M7760 6564 c0 -8 5 -12 10 -9 6 4 8 11 5 16 -9 14 -15 11 -15 -7z"/>
<path d="M7955 6560 c3 -5 8 -10 11 -10 2 0 4 5 4 10 0 6 -5 10 -11 10 -5 0
-7 -4 -4 -10z"/>
<path d="M8440 6509 c0 -5 5 -7 10 -4 6 3 10 8 10 11 0 2 -4 4 -10 4 -5 0 -10
-5 -10 -11z"/>
<path d="M7991 6435 c-1 -31 14 -64 23 -54 4 3 0 23 -8 45 -14 38 -15 38 -15
9z"/>
<path d="M7640 6370 c0 -5 5 -10 10 -10 6 0 10 5 10 10 0 6 -4 10 -10 10 -5 0
-10 -4 -10 -10z"/>
<path d="M8040 6301 c0 -6 5 -13 10 -16 6 -3 10 1 10 9 0 9 -4 16 -10 16 -5 0
-10 -4 -10 -9z"/>
<path d="M8070 6219 c0 -25 21 -79 31 -79 16 0 9 47 -11 71 -15 18 -19 20 -20
8z"/>
<path d="M7951 6194 c0 -11 3 -14 6 -6 3 7 2 16 -1 19 -3 4 -6 -2 -5 -13z"/>
<path d="M8176 6191 c-3 -4 1 -17 9 -27 14 -18 14 -18 15 9 0 26 -13 36 -24
18z"/>
<path d="M7900 6136 c0 -9 5 -16 10 -16 6 0 10 4 10 9 0 6 -4 13 -10 16 -5 3
-10 -1 -10 -9z"/>
<path d="M9116 7588 c3 -4 11 -5 19 -1 21 7 19 12 -4 10 -11 0 -18 -5 -15 -9z"/>
<path d="M9110 7539 c0 -5 5 -7 10 -4 6 3 10 8 10 11 0 2 -4 4 -10 4 -5 0 -10
-5 -10 -11z"/>
<path d="M8555 6244 c-4 -10 -13 -34 -21 -53 -10 -22 -12 -37 -6 -43 7 -7 12
-2 17 11 3 12 11 21 17 21 6 0 6 -6 -2 -15 -7 -8 -9 -15 -6 -15 4 0 2 -9 -4
-20 -12 -22 -1 -27 17 -9 6 6 9 17 6 24 -2 7 5 16 16 20 12 3 21 9 22 13 5 42
3 62 -7 66 -8 3 -12 -5 -11 -22 1 -15 -2 -28 -8 -30 -5 -1 -10 12 -11 28 -2
38 -11 49 -19 24z"/>
<path d="M8640 6210 c0 -5 5 -10 11 -10 5 0 7 5 4 10 -3 6 -8 10 -11 10 -2 0
-4 -4 -4 -10z"/>
<path d="M8700 6071 c0 -10 29 -36 34 -30 1 2 -6 12 -16 22 -10 9 -18 13 -18
8z"/>
<path d="M8788 5997 c-3 -15 -1 -30 4 -33 13 -9 15 -3 8 31 l-6 30 -6 -28z"/>
<path d="M8749 6002 c-1 -4 -1 -11 0 -16 1 -4 -6 -14 -15 -21 -20 -14 -11 -35
14 -35 13 0 14 2 3 9 -9 6 -10 11 -2 15 22 14 32 44 16 50 -8 3 -16 2 -16 -2z"/>
<path d="M8540 5960 c0 -5 5 -10 10 -10 6 0 10 -7 10 -15 0 -8 5 -15 10 -15
14 0 13 23 -2 38 -15 15 -28 16 -28 2z"/>
<path d="M6885 5687 c1 -18 9 -47 17 -65 9 -17 20 -46 23 -64 7 -32 49 -115
67 -133 25 -24 -4 120 -38 189 -18 39 -34 67 -35 61 0 -5 -4 1 -8 14 -10 37
-27 36 -26 -2z"/>
<path d="M7066 5524 c9 -40 24 -54 24 -22 0 14 -7 31 -16 39 -13 11 -14 9 -8
-17z"/>
<path d="M7192 5534 c-1 -11 -13 -53 -27 -93 -32 -94 -26 -111 26 -70 21 17
39 35 39 39 0 5 -14 -4 -32 -20 -17 -16 -34 -27 -36 -25 -3 2 5 31 17 63 13
35 21 73 18 93 -2 19 -5 25 -5 13z"/>
<path d="M6877 5482 c8 -20 30 -66 49 -102 18 -36 38 -77 43 -92 16 -42 33
-35 25 10 -17 98 -77 213 -113 219 -19 3 -19 1 -4 -35z"/>
<path d="M6830 5490 c1 -8 7 -28 16 -45 l14 -30 -5 35 c-5 35 -25 67 -25 40z"/>
<path d="M7245 5459 c-4 -6 -5 -12 -2 -15 2 -3 7 2 10 11 7 17 1 20 -8 4z"/>
<path d="M6881 5294 c0 -11 3 -14 6 -6 3 7 2 16 -1 19 -3 4 -6 -2 -5 -13z"/>
<path d="M6815 5131 c-3 -5 -1 -12 5 -16 5 -3 10 1 10 9 0 18 -6 21 -15 7z"/>
<path d="M7787 5733 c-4 -3 -7 -11 -7 -17 0 -6 5 -5 12 2 6 6 9 14 7 17 -3 3
-9 2 -12 -2z"/>
<path d="M7490 5364 c0 -8 5 -12 10 -9 6 4 8 11 5 16 -9 14 -15 11 -15 -7z"/>
<path d="M6970 5030 c-8 -5 -10 -10 -5 -10 6 0 17 5 25 10 8 5 11 10 5 10 -5
0 -17 -5 -25 -10z"/>
<path d="M6611 4646 c-10 -12 -8 -13 8 -9 12 3 21 9 21 14 0 14 -16 11 -29 -5z"/>
<path d="M5927 4380 c3 -11 7 -20 9 -20 2 0 4 9 4 20 0 11 -4 20 -9 20 -5 0
-7 -9 -4 -20z"/>
<path d="M5975 4320 c-13 -6 -15 -9 -5 -9 8 0 22 4 30 9 18 12 2 12 -25 0z"/>
<path d="M5710 4240 c-9 -6 -10 -10 -3 -10 6 0 15 5 18 10 8 12 4 12 -15 0z"/>
<path d="M5466 4115 c-11 -8 -16 -15 -10 -15 5 0 18 7 28 15 11 8 16 15 10 15
-5 0 -18 -7 -28 -15z"/>
<path d="M5410 4096 c0 -2 7 -6 15 -10 8 -3 15 -1 15 4 0 6 -7 10 -15 10 -8 0
-15 -2 -15 -4z"/>
<path d="M5400 4070 c-9 -6 -10 -10 -3 -10 6 0 15 5 18 10 8 12 4 12 -15 0z"/>
<path d="M4591 3161 c-23 -55 -25 -61 -13 -61 8 0 44 101 38 107 -2 2 -13 -19
-25 -46z"/>
<path d="M8146 5527 c3 -10 9 -15 12 -12 3 3 0 11 -7 18 -10 9 -11 8 -5 -6z"/>
<path d="M8090 5390 c-18 -14 -21 -20 -9 -20 9 0 24 9 34 20 23 26 8 26 -25 0z"/>
<path d="M8394 5379 c-3 -6 -2 -15 3 -20 5 -5 9 -1 10 11 2 22 -2 25 -13 9z"/>
<path d="M8260 5275 c0 -8 4 -15 8 -15 5 0 9 7 9 15 0 8 -4 15 -9 15 -4 0 -8
-7 -8 -15z"/>
<path d="M8965 5470 c-3 -5 -1 -10 4 -10 6 0 11 5 11 10 0 6 -2 10 -4 10 -3 0
-8 -4 -11 -10z"/>
<path d="M5870 3638 c0 -19 2 -20 10 -8 13 19 13 30 0 30 -5 0 -10 -10 -10
-22z"/>
<path d="M5761 3591 c-16 -10 -6 -31 14 -31 8 0 12 6 9 14 -3 8 2 16 13 19 16
4 16 5 -2 6 -11 0 -26 -3 -34 -8z"/>
<path d="M5530 3369 c0 -5 5 -7 10 -4 6 3 10 8 10 11 0 2 -4 4 -10 4 -5 0 -10
-5 -10 -11z"/>
<path d="M5507 3303 c-4 -3 -7 -11 -7 -17 0 -6 5 -5 12 2 6 6 9 14 7 17 -3 3
-9 2 -12 -2z"/>
<path d="M5165 2160 c-3 -5 -1 -10 4 -10 6 0 11 5 11 10 0 6 -2 10 -4 10 -3 0
-8 -4 -11 -10z"/>
<path d="M4850 971 c0 -6 5 -13 12 -17 6 -4 8 -3 4 4 -3 5 0 13 6 15 8 3 6 6
-4 6 -10 1 -18 -3 -18 -8z"/>
<path d="M4670 900 c-10 -6 -12 -12 -5 -19 7 -7 14 -4 23 9 13 21 6 25 -18 10z"/>
</g>
</svg>
