<!DOCTYPE svg PUBLIC "-//W3C//DTD SVG 1.1//EN" "http://www.w3.org/Graphics/SVG/1.1/DTD/svg11.dtd">
<svg fill="#f5f5f5" height="200px" width="200px" version="1.1" id="Capa_1" xmlns="http://www.w3.org/2000/svg" xmlns:xlink="http://www.w3.org/1999/xlink" viewBox="0 0 296 296" xml:space="preserve" stroke="#f5f5f5" stroke-width="0">
<g id="SVGRepo_bgCarrier" stroke-width="0"/>
<g id="SVGRepo_iconCarrier"> <g> <path d="M270.213,296c0-61-22.546-93.876-57.546-109.694V296H270.213z"/> <path d="M25.787,296h55.88V186.766C48.667,202.765,25.787,236,25.787,296z"/> <path d="M147.667,205.006c-18.313,0-35-5.171-50-14.124V296h99V191.486C182.667,200.066,165.563,205.006,147.667,205.006z"/> <path d="M148,82c39.888,0,74.516,8.21,93.974,13.999c0.001-1.792,0.002-3.523,0.003-5.103c0.002-4.494,0.004-7.783,0.005-7.886 C241.58,37.091,207.705,0,164.954,0H132.8C90.051,0,54.441,37.091,54.02,83.011c0.001,0.103,0.003,3.39,0.005,7.879 c0.001,1.581,0.002,3.314,0.003,5.108C73.486,90.21,108.113,82,148,82z"/> <path d="M56.381,127.202c4.352-1.337,8.745-2.561,13.162-3.706c6.718,37.246,39.276,65.51,78.457,65.51 c39.274,0,71.895-28.398,78.505-65.777c4.399,1.145,8.771,2.371,13.102,3.708c0.81,0.251,1.628,0.363,2.432,0.356 c3.39-0.028,6.52-2.227,7.573-5.639c0.723-2.339,0.316-4.754-0.906-6.668c-0.983-1.54-2.66-2.756-4.542-3.337 c-10.911-3.37-21.496-6.142-33.496-8.337v10.811c0,15.926-12.991,28.837-28.918,28.837c-12.887,0-23.946-8.391-27.452-20.111 c-3.01-10.058,0.268-21.694-6.171-21.977c-6.44,0.282-3.182,11.919-6.192,21.977c-3.508,11.721-14.972,20.111-27.859,20.111 c-15.928,0-29.407-12.911-29.407-28.837v-10.538c-11,2.203-22.233,4.97-33.15,8.322c-1.745,0.536-3.084,1.619-4.068,2.998 c-1.398,1.959-1.867,4.52-1.106,6.998c1.055,3.436,4.234,5.645,7.648,5.651c0.006,0,0.022,0.002,0.028,0.002 C54.797,127.557,55.599,127.442,56.381,127.202z"/> </g> <g> </g> <g> </g> <g> </g> <g> </g> <g> </g> <g> </g> <g> </g> <g> </g> <g> </g> <g> </g> <g> </g> <g> </g> <g> </g> <g> </g> <g> </g> </g>
</svg>